<svg version="1.2" xmlns="http://www.w3.org/2000/svg" viewBox="0 0 360 400" width="360" height="400">
	<title>logo-only-rb</title>
	<style>
		.s0 { opacity: .01;fill: #ffffff } 
		.s1 { opacity: .06;fill: #ffffff } 
		.s2 { opacity: .31;fill: #ffffff } 
		.s3 { opacity: .22;fill: #ffffff } 
		.s4 { opacity: .04;fill: #ffffff } 
		.s5 { fill: #ffffff } 
		.s6 { opacity: .89;fill: #ffffff } 
		.s7 { opacity: .02;fill: #ffffff } 
		.s8 { opacity: .08;fill: #ffffff } 
		.s9 { opacity: .05;fill: #ffffff } 
		.s10 { opacity: .4;fill: #ffffff } 
		.s11 { opacity: .04;fill: #ffffff } 
		.s12 { opacity: .09;fill: #ffffff } 
		.s13 { opacity: .18;fill: #ffffff } 
		.s14 { opacity: .05;fill: #ffffff } 
		.s15 { opacity: .05;fill: #ffffff } 
		.s16 { opacity: .11;fill: #ffffff } 
		.s17 { opacity: .17;fill: #ffffff } 
		.s18 { opacity: .69;fill: #ffffff } 
		.s19 { opacity: .06;fill: #ffffff } 
		.s20 { opacity: .07;fill: #ffffff } 
		.s21 { opacity: .09;fill: #ffffff } 
		.s22 { opacity: .07;fill: #ffffff } 
		.s23 { fill: #ffffff } 
		.s24 { opacity: .02;fill: #ffffff } 
		.s25 { opacity: .04;fill: #ffffff } 
		.s26 { opacity: .41;fill: #ffffff } 
		.s27 { opacity: .07;fill: #ffffff } 
		.s28 { opacity: .07;fill: #ffffff } 
		.s29 { opacity: .13;fill: #ffffff } 
		.s30 { opacity: .05;fill: #ffffff } 
		.s31 { opacity: .99;fill: #ffffff } 
		.s32 { opacity: .82;fill: #ffffff } 
		.s33 { opacity: .22;fill: #ffffff } 
		.s34 { opacity: .05;fill: #ffffff } 
		.s35 { opacity: .05;fill: #ffffff } 
		.s36 { opacity: .06;fill: #ffffff } 
		.s37 { opacity: .05;fill: #ffffff } 
		.s38 { opacity: .4;fill: #ffffff } 
		.s39 { opacity: .11;fill: #ffffff } 
		.s40 { opacity: .02;fill: #ffffff } 
		.s41 { opacity: .02;fill: #ffffff } 
		.s42 { opacity: .05;fill: #ffffff } 
		.s43 { opacity: .08;fill: #ffffff } 
		.s44 { opacity: .91;fill: #ffffff } 
		.s45 { opacity: .07;fill: #ffffff } 
		.s46 { opacity: .51;fill: #ffffff } 
		.s47 { opacity: .03;fill: #ffffff } 
		.s48 { opacity: .44;fill: #ffffff } 
		.s49 { opacity: .01;fill: #ffffff } 
		.s50 { opacity: .3;fill: #ffffff } 
		.s51 { opacity: .02;fill: #ffffff } 
		.s52 { opacity: .71;fill: #ffffff } 
		.s53 { opacity: .03;fill: #ffffff } 
		.s54 { opacity: .67;fill: #ffffff } 
		.s55 { opacity: .2;fill: #ffffff } 
		.s56 { opacity: .04;fill: #ffffff } 
		.s57 { opacity: .02;fill: #ffffff } 
		.s58 { opacity: .09;fill: #ffffff } 
		.s59 { opacity: .07;fill: #ffffff } 
		.s60 { opacity: .24;fill: #ffffff } 
		.s61 { opacity: .75;fill: #ffffff } 
		.s62 { opacity: .19;fill: #ffffff } 
		.s63 { opacity: .13;fill: #ffffff } 
		.s64 { opacity: .34;fill: #ffffff } 
		.s65 { opacity: .96;fill: #ffffff } 
		.s66 { opacity: .04;fill: #ffffff } 
		.s67 { opacity: .06;fill: #ffffff } 
		.s68 { opacity: .07;fill: #ffffff } 
		.s69 { opacity: .73;fill: #ffffff } 
		.s70 { opacity: .27;fill: #ffffff } 
		.s71 { opacity: .35;fill: #ffffff } 
		.s72 { opacity: .13;fill: #ffffff } 
		.s73 { opacity: .02;fill: #ffffff } 
		.s74 { opacity: .03;fill: #ffffff } 
		.s75 { opacity: .09;fill: #ffffff } 
		.s76 { opacity: .41;fill: #ffffff } 
		.s77 { opacity: .05;fill: #ffffff } 
		.s78 { opacity: .86;fill: #ffffff } 
		.s79 { opacity: .06;fill: #ffffff } 
		.s80 { opacity: .53;fill: #ffffff } 
		.s81 { opacity: .02;fill: #ffffff } 
		.s82 { opacity: .01;fill: #ffffff } 
		.s83 { opacity: .74;fill: #ffffff } 
		.s84 { opacity: .52;fill: #ffffff } 
		.s85 { opacity: .05;fill: #ffffff } 
		.s86 { opacity: .19;fill: #ffffff } 
		.s87 { opacity: .06;fill: #ffffff } 
		.s88 { opacity: .02;fill: #ffffff } 
		.s89 { opacity: .45;fill: #ffffff } 
		.s90 { opacity: .02;fill: #ffffff } 
		.s91 { opacity: .16;fill: #ffffff } 
		.s92 { opacity: .06;fill: #ffffff } 
		.s93 { opacity: .23;fill: #ffffff } 
		.s94 { opacity: .52;fill: #ffffff } 
		.s95 { opacity: .12;fill: #ffffff } 
		.s96 { opacity: .11;fill: #ffffff } 
		.s97 { opacity: .05;fill: #ffffff } 
		.s98 { opacity: .12;fill: #ffffff } 
		.s99 { opacity: .01;fill: #ffffff } 
		.s100 { fill: #ffffff } 
		.s101 { opacity: .01;fill: #ffffff } 
		.s102 { opacity: .01;fill: #ffffff } 
		.s103 { opacity: .03;fill: #ffffff } 
		.s104 { opacity: .49;fill: #ffffff } 
		.s105 { opacity: .15;fill: #ffffff } 
		.s106 { opacity: .03;fill: #ffffff } 
		.s107 { opacity: .03;fill: #ffffff } 
		.s108 { opacity: .14;fill: #ffffff } 
		.s109 { opacity: .02;fill: #ffffff } 
		.s110 { opacity: .13;fill: #ffffff } 
		.s111 { opacity: .15;fill: #ffffff } 
		.s112 { opacity: .28;fill: #ffffff } 
		.s113 { opacity: .44;fill: #ffffff } 
		.s114 { opacity: .07;fill: #ffffff } 
		.s115 { opacity: .02;fill: #ffffff } 
		.s116 { opacity: .02;fill: #ffffff } 
		.s117 { opacity: .02;fill: #ffffff } 
		.s118 { opacity: .15;fill: #ffffff } 
		.s119 { opacity: .01;fill: #ffffff } 
		.s120 { opacity: .08;fill: #ffffff } 
		.s121 { opacity: .11;fill: #ffffff } 
		.s122 { opacity: .01;fill: #ffffff } 
		.s123 { opacity: .17;fill: #ffffff } 
		.s124 { opacity: .02;fill: #ffffff } 
		.s125 { opacity: .02;fill: #ffffff } 
		.s126 { opacity: .4;fill: #ffffff } 
		.s127 { opacity: .03;fill: #ffffff } 
		.s128 { opacity: .07;fill: #ffffff } 
		.s129 { opacity: .08;fill: #ffffff } 
		.s130 { opacity: .09;fill: #ffffff } 
		.s131 { opacity: .05;fill: #ffffff } 
		.s132 { opacity: .41;fill: #ffffff } 
		.s133 { opacity: .38;fill: #ffffff } 
		.s134 { opacity: .05;fill: #ffffff } 
		.s135 { opacity: .06;fill: #ffffff } 
		.s136 { opacity: .07;fill: #ffffff } 
		.s137 { opacity: .02;fill: #ffffff } 
		.s138 { opacity: .09;fill: #ffffff } 
		.s139 { opacity: .01;fill: #ffffff } 
		.s140 { opacity: .02;fill: #ffffff } 
		.s141 { opacity: .02;fill: #ffffff } 
		.s142 { opacity: .11;fill: #ffffff } 
		.s143 { opacity: .05;fill: #ffffff } 
		.s144 { opacity: .18;fill: #ffffff } 
		.s145 { opacity: .72;fill: #ffffff } 
		.s146 { opacity: .12;fill: #ffffff } 
		.s147 { opacity: .05;fill: #ffffff } 
		.s148 { opacity: .98;fill: #ffffff } 
		.s149 { opacity: .32;fill: #ffffff } 
		.s150 { opacity: .07;fill: #ffffff } 
		.s151 { opacity: .01;fill: #ffffff } 
		.s152 { opacity: .62;fill: #ffffff } 
		.s153 { opacity: .05;fill: #ffffff } 
		.s154 { opacity: .07;fill: #ffffff } 
		.s155 { opacity: .01;fill: #ffffff } 
		.s156 { opacity: .1;fill: #ffffff } 
		.s157 { opacity: .53;fill: #ffffff } 
		.s158 { opacity: .05;fill: #ffffff } 
		.s159 { opacity: .11;fill: #ffffff } 
		.s160 { opacity: .01;fill: #ffffff } 
		.s161 { opacity: .02;fill: #ffffff } 
		.s162 { opacity: .06;fill: #ffffff } 
		.s163 { opacity: .09;fill: #ffffff } 
		.s164 { opacity: .97;fill: #ffffff } 
		.s165 { opacity: .53;fill: #ffffff } 
		.s166 { opacity: .05;fill: #ffffff } 
		.s167 { opacity: .11;fill: #ffffff } 
		.s168 { opacity: 0;fill: #ffffff } 
		.s169 { opacity: .16;fill: #ffffff } 
		.s170 { opacity: .02;fill: #ffffff } 
		.s171 { opacity: .11;fill: #ffffff } 
		.s172 { opacity: .13;fill: #ffffff } 
		.s173 { opacity: .08;fill: #ffffff } 
		.s174 { opacity: .99;fill: #ffffff } 
		.s175 { opacity: .02;fill: #ffffff } 
		.s176 { opacity: .14;fill: #ffffff } 
		.s177 { opacity: .09;fill: #ffffff } 
		.s178 { opacity: .26;fill: #ffffff } 
		.s179 { opacity: .04;fill: #ffffff } 
		.s180 { opacity: .07;fill: #ffffff } 
		.s181 { opacity: .08;fill: #ffffff } 
		.s182 { opacity: .01;fill: #ffffff } 
		.s183 { opacity: .56;fill: #ffffff } 
		.s184 { opacity: .02;fill: #ffffff } 
		.s185 { opacity: .64;fill: #ffffff } 
		.s186 { opacity: .02;fill: #ffffff } 
		.s187 { opacity: .87;fill: #ffffff } 
		.s188 { opacity: .02;fill: #ffffff } 
		.s189 { opacity: .05;fill: #ffffff } 
		.s190 { opacity: .07;fill: #ffffff } 
		.s191 { opacity: .17;fill: #ffffff } 
		.s192 { opacity: .01;fill: #ffffff } 
		.s193 { opacity: .02;fill: #ffffff } 
		.s194 { opacity: .01;fill: #ffffff } 
		.s195 { opacity: .14;fill: #ffffff } 
		.s196 { opacity: .08;fill: #ffffff } 
		.s197 { opacity: .41;fill: #ffffff } 
		.s198 { opacity: .01;fill: #ffffff } 
		.s199 { opacity: .88;fill: #ffffff } 
		.s200 { opacity: .29;fill: #ffffff } 
		.s201 { opacity: .16;fill: #ffffff } 
		.s202 { opacity: .03;fill: #ffffff } 
		.s203 { opacity: .78;fill: #ffffff } 
		.s204 { opacity: .6;fill: #ffffff } 
		.s205 { opacity: .01;fill: #ffffff } 
		.s206 { opacity: .99;fill: #ffffff } 
		.s207 { opacity: .04;fill: #ffffff } 
		.s208 { opacity: .62;fill: #ffffff } 
		.s209 { opacity: .02;fill: #ffffff } 
		.s210 { opacity: .02;fill: #ffffff } 
		.s211 { opacity: .13;fill: #ffffff } 
		.s212 { opacity: .12;fill: #ffffff } 
		.s213 { opacity: .95;fill: #ffffff } 
		.s214 { opacity: .13;fill: #ffffff } 
		.s215 { opacity: .03;fill: #ffffff } 
		.s216 { opacity: .05;fill: #ffffff } 
		.s217 { opacity: .89;fill: #ffffff } 
		.s218 { opacity: .19;fill: #ffffff } 
		.s219 { opacity: .02;fill: #ffffff } 
		.s220 { opacity: .13;fill: #ffffff } 
		.s221 { opacity: .04;fill: #ffffff } 
		.s222 { opacity: .38;fill: #ffffff } 
		.s223 { opacity: .04;fill: #ffffff } 
		.s224 { opacity: .07;fill: #ffffff } 
		.s225 { opacity: .03;fill: #ffffff } 
		.s226 { opacity: .04;fill: #ffffff } 
		.s227 { opacity: .02;fill: #ffffff } 
		.s228 { opacity: .16;fill: #ffffff } 
		.s229 { opacity: .73;fill: #ffffff } 
		.s230 { opacity: .13;fill: #ffffff } 
		.s231 { opacity: .45;fill: #ffffff } 
		.s232 { opacity: .09;fill: #ffffff } 
		.s233 { opacity: .24;fill: #ffffff } 
		.s234 { opacity: .13;fill: #ffffff } 
		.s235 { opacity: .01;fill: #ffffff } 
		.s236 { opacity: .55;fill: #ffffff } 
		.s237 { opacity: .02;fill: #ffffff } 
		.s238 { opacity: .03;fill: #ffffff } 
		.s239 { opacity: .03;fill: #ffffff } 
		.s240 { opacity: .09;fill: #ffffff } 
		.s241 { opacity: .12;fill: #ffffff } 
		.s242 { opacity: .24;fill: #ffffff } 
		.s243 { opacity: .02;fill: #ffffff } 
		.s244 { opacity: .1;fill: #ffffff } 
		.s245 { opacity: .06;fill: #ffffff } 
		.s246 { opacity: .16;fill: #ffffff } 
		.s247 { opacity: .07;fill: #ffffff } 
		.s248 { opacity: .98;fill: #ffffff } 
		.s249 { opacity: .07;fill: #ffffff } 
		.s250 { opacity: .32;fill: #ffffff } 
		.s251 { opacity: .02;fill: #ffffff } 
		.s252 { opacity: .01;fill: #ffffff } 
		.s253 { opacity: .06;fill: #ffffff } 
		.s254 { opacity: .02;fill: #ffffff } 
		.s255 { opacity: .07;fill: #ffffff } 
		.s256 { opacity: .04;fill: #ffffff } 
		.s257 { opacity: .14;fill: #ffffff } 
		.s258 { opacity: .01;fill: #ffffff } 
		.s259 { opacity: .04;fill: #ffffff } 
		.s260 { opacity: .05;fill: #ffffff } 
		.s261 { opacity: .97;fill: #ffffff } 
		.s262 { opacity: .09;fill: #ffffff } 
		.s263 { opacity: .54;fill: #ffffff } 
		.s264 { opacity: .02;fill: #ffffff } 
		.s265 { opacity: .07;fill: #ffffff } 
		.s266 { opacity: .03;fill: #ffffff } 
		.s267 { opacity: .07;fill: #ffffff } 
		.s268 { opacity: .53;fill: #ffffff } 
		.s269 { opacity: .59;fill: #ffffff } 
		.s270 { opacity: .01;fill: #ffffff } 
		.s271 { opacity: .73;fill: #ffffff } 
		.s272 { opacity: .04;fill: #ffffff } 
		.s273 { opacity: .07;fill: #ffffff } 
		.s274 { opacity: .14;fill: #ffffff } 
		.s275 { opacity: .02;fill: #ffffff } 
		.s276 { opacity: .07;fill: #ffffff } 
		.s277 { opacity: .02;fill: #ffffff } 
		.s278 { opacity: .01;fill: #ffffff } 
	</style>
	<g>
		<path fill-rule="evenodd" class="s0" d="m15.6 7.5q-4.2 0-8.5 0 0.2-0.8 0.8-1.2 1.5-0.2 3.1-0.4 2.7-0.1 4.6 1.6z"/>
	</g>
	<g>
		<path fill-rule="evenodd" class="s1" d="m223.6 7.5q-88.6 0-177.3 0-5 0-10 0 0.5-0.9 1.5-1.2 46.5-0.2 92.9-0.4 46.9 0 92.9 1.6z"/>
	</g>
	<g>
		<path fill-rule="evenodd" class="s2" d="m4.8 7.5q1.2 0 2.3 0 4.3 0 8.5 0 10.3 0 20.7 0 5 0 10 0 88.1 0.9 176.6 1.1 2.5 0.2 4.6 1.2-71-1.1-142.1-0.8-40 0.1-79.8 0.8 0 1.9 0 3.8 8.4 0.7 16.9 0.8 0 1.1 0 2.3-0.4 0-0.8 0-1.9 0-3.8 0-2.9-2.2-6.9-1.6-3.7 0.7-6.2-1.5 0-3.1 0-6.1z"/>
	</g>
	<g>
		<path fill-rule="evenodd" class="s3" d="m46.3 7.5q88.7 0 177.3 0 2.7 0 5.4 0 4.1 2.2 9.2 1.5 1.6 0 3.1 0 2 2.1 5.4 1.5 0.4 0 0.7 0 0 1.2 0 2.3-9.5-3.3-19.9-3-2.1-1-4.6-1.2-88.5-0.2-176.6-1.1z"/>
	</g>
	<g>
		<path fill-rule="evenodd" class="s4" d="m229 7.5q4.3-0.2 8.5 0.3 0.6 0.5 0.7 1.2-5.1 0.7-9.2-1.5z"/>
	</g>
	<g>
		<path fill-rule="evenodd" class="s5" d="m85.4 9q-2.8 0.9-6.1 1.1 2.6 1.2 5.4 1.2 0.6 4.3 0.7 8.4-2.2 1.1-3.8 3.1-1.4 3.5-3.8 6.2-2.4 2.6-3.5 6.1-0.6 2.3-0.4 4.6-0.7 0.1-1.1 0.8-0.2 4.6-1.2 9.2-1.5 73.3 0 146.6 8.9 0.6 17.7 1.9 9 3.5 18.4 5.8 3.7 1.9 7.7 3.8 5.7 3.5 11.5 7 1.1 3.2 4.6 3-0.2 1.2 0.4 2.3 10.1 8.6 18.8 18.5 3.8 5.5 8.1 10.7 2 2.6 5 3.8 0.7 2.3 3 3.1-0.1 3.5 3.1 4.6 0 1.6 0 3.1 3.6 5.4 6.9 11.1-1.6 1.6 0.4 2.7 0.4-0.8 0.8-1.5 2.6 1.6 3.4 4.6 1 1 2.3 0.7-0.5 3.3 2.3 4.7 1.6 0 1.6 1.5 1.4 4 4.6 6.9 1.4 0.3 2.3 1.5 3.8 6.2 7.6 12.3 2.2 1.9 4.6 3.1 0.1 4.8 4.7 6.1-0.4 2.1 0.7 3.9 3.5 4 6.9 7.6 1.6 3.5 3.1 7 1.2-0.2 2.3 0.3 1.4 3.2 4.6 4.3 0.4 4.2 4.6 4.6 1.6 0 1.6 1.5 2.3 4 6.9 5 4.2 0.6 8.4 0.4 0.4 3.9-3.1 5.4-14.8 5.1-30.7 3.4-4.8-2.6-10-4.2-6.9-2.8-10.7-9.2-1.6-4.2-4.2-7.7-1.6-1.2-3.5-1.5-3.7-6.1-8.4-11.6-0.8-1.5-1.6-3-3.7-7.9-8.4-15.4-1-1-2.3-0.7-4.1-5.1-6.9-10.8-0.5-3-3.1-4.6-8.1-11.2-14.6-23.8-1.2-1.6-3-1.5-1.1-2.6-1.6-5.4-3-5.3-6.1-10.8-1.6-2.9-4.6-3.8-2.8-2.4-3.9-6.1-2.6-3.1-6.1-4.7 0-5.2-4.6-7.6-1.6-0.8-3.1-1.6-0.9-1.9-2.3-3.8-9.3-9.8-21.5-15.7-5.6-2.4-11.5-3.5-1.2-2-3.8-1.5-0.2 71.8 0.3 143.5 0.3 1.5 1.2 2.3-0.2 4.7 0.4 9.3 1.2 4 1.9 8.4 1 2.8 3.1 4.6 0.7 0 1.5 0 0.5 4.4 4.6 6.1 0.3 2.5 2.3 3.9 0 1.7 1.5 2.7-3.3 0.1-3 3.4-13.7 0.2-27.3 1.6-3.1-1.3-6.5-1.6-10.4 0.8-20.7 1.6-5.8-0.6-2.3-5-0.8-0.2-1.6-0.4-8.6 4-17.6 2.3 4.4 0.6 7.6-1.5 4 0.3 7.7-0.8 4.3-2.5 8.5-5 3.6-4.9 6.1-10.4 1.4-4.1 1.5-8.4 1.9-1.4 2-3.8 0.5-3.1 0.3-6.2 0.8-0.1 1.2-0.8 0.6-60.2 0.4-120.5 0.7 0.1 1.1 0.8 0.4 5.7 0.8 11.5 2.2-15.6 2.7-31.5-0.3-6.3-0.8-12.7-0.1-4.6 1.6-8.8-0.7-4-1.6-8 1.4-45.9 0.4-91.8-1.7-12.1-2.3-24.6-0.5-1.4-1.9-1.5 0.4-4.6-1.6-8.4 0.4-1.9-0.7-3.1 0-0.4 0-0.8-0.9-12.4-6.5-23.8-4.8-6.7-12.7-8.4 0-1.2 0-2.3-8.5-0.1-16.9-0.8 0-1.9 0-3.8 39.8-0.7 79.8-0.8z"/>
	</g>
	<g>
		<path fill-rule="evenodd" class="s6" d="m85.4 9q71.1-0.3 142.1 0.8 10.4-0.3 19.9 3 4 0 7.7 1.6 1.4-0.1 2.3-0.8 0.8 0 1.6 0-0.2 1.5 0.7 2.7 3 1.2 6.2 1.1 0.3 0 0.7 0 2.6 2.9 6.2 4.6 2.4 1.7 5.3 1.6 2 3.1 4.7 5.4-2.2-1.5-4.3 0-0.5-1.3 0.4-2.3-1.3-1.3-1.9 0.7-2.4-2.3-4.6-4.6-0.8 2.8-2.3 0-3.8 4.1-8.1 0.4 1.6-1.5 0-3.1-2.6-0.2-5-1.1-2 1.5-3.4-0.8-4.6 1.9-9.6 2.3-1.1 0.5-1.6 1.5-2.2-1.5-4.2 0-1.7-0.9-3.8-0.7-3.8 0.3-6.9-1.6-1.1 0.1-1.6 0.8-0.3 0-0.7 0 0-1.1 0-2.3-5.3 0.3-10-1.5-1.5 0-3.1 0-1.5-1.5-3.8-1.9-57.2-1-114.4 0.3-3.1 0.8-6.2 1.6-0.4 0.8-0.7 1.5 0 1.5-1.6 1.5-0.1-4.1-0.7-8.4-2.8 0-5.4-1.2 3.3-0.2 6.1-1.1z"/>
	</g>
	<g>
		<path fill-rule="evenodd" class="s7" d="m241.3 9q2.3-0.2 4.6 0.4 0.6 0.4 0.8 1.1-3.4 0.6-5.4-1.5z"/>
	</g>
	<g>
		<path fill-rule="evenodd" class="s8" d="m4.8 7.5q0 3 0 6.1-1.4-1-1.5-3.1 0.1-2.1 1.5-3z"/>
	</g>
	<g>
		<path fill-rule="evenodd" class="s9" d="m247.4 10.5q2.8-0.3 5.4 0.8 2.9 0.5 4.6 2.3-0.9 0.7-2.3 0.8-3.7-1.6-7.7-1.6 0-1.1 0-2.3z"/>
	</g>
	<g>
		<path fill-rule="evenodd" class="s10" d="m212.1 16.7q-3.4 0-6.9 0-0.4 0-0.8 0-26.2-1.6-53.3-1.6-26.7 0.4-53.4 0.8-5.3 1.5-10.7 2.3 0.3-0.7 0.7-1.5 3.1-0.8 6.2-1.6 57.2-1.3 114.4-0.3 2.3 0.4 3.8 1.9z"/>
	</g>
	<g>
		<path fill-rule="evenodd" class="s11" d="m11 15.1q4-0.6 6.9 1.6-3.1 0.2-6.2-0.4-0.6-0.5-0.7-1.2z"/>
	</g>
	<g>
		<path fill-rule="evenodd" class="s12" d="m204.4 16.7q-52.9-0.2-105.9 0.4-9.8 2.3-16.9 9.6-2.9 5.5-5.4 10.7-0.1-4.4 1.6-8.4 2.4-2.7 3.8-6.2 1.6-2 3.8-3.1 1.6 0 1.6-1.5 5.4-0.8 10.7-2.3 26.7-0.4 53.4-0.8 27.1 0 53.3 1.6z"/>
	</g>
	<g>
		<path fill-rule="evenodd" class="s13" d="m259 13.6q3.3 0.1 6.1 1.9 0.9 0.8 0.8 1.9-3.2 0.1-6.2-1.1-0.9-1.2-0.7-2.7z"/>
	</g>
	<g>
		<path fill-rule="evenodd" class="s14" d="m205.2 16.7q3.5 0 6.9 0 1.6 0 3.1 0 0 1.1 0 2.3-4.1 0.1-8.1-0.8-1.6-0.2-1.9-1.5z"/>
	</g>
	<g>
		<path fill-rule="evenodd" class="s15" d="m215.2 16.7q4.7 1.8 10 1.5 0 1.2 0 2.3-0.1 0.6-0.8 0.8-4.7-0.8-9.2-2.3 0-1.2 0-2.3z"/>
	</g>
	<g>
		<path fill-rule="evenodd" class="s16" d="m234.4 21.3q0 1.1 0 2.3-4.6-0.9-8.5-3.1 0.5-0.7 1.6-0.8 3.1 1.9 6.9 1.6z"/>
	</g>
	<g>
		<path fill-rule="evenodd" class="s17" d="m266.6 17.4q6.9 1.2 11.5 6.2-2.9 0.1-5.3-1.6-3.6-1.7-6.2-4.6z"/>
	</g>
	<g>
		<path fill-rule="evenodd" class="s18" d="m234.4 21.3q2.1-0.2 3.8 0.7 2.8 0.5 5.4 1.6 0 1.9 1.5 3.1-1.5 0-3 0-2.7-4-7.7-3.1 0-1.2 0-2.3z"/>
	</g>
	<g>
		<path fill-rule="evenodd" class="s19" d="m234.4 23.6q5-0.9 7.7 3.1-3.5-0.9-6.9-2-0.7-0.4-0.8-1.1z"/>
	</g>
	<g>
		<path fill-rule="evenodd" class="s20" d="m242.1 26.7q1.5 0 3 0 0 0.7 0 1.5-2.2 0.4-3-1.5z"/>
	</g>
	<g>
		<path fill-rule="evenodd" class="s21" d="m278.1 23.6q5.6 1.3 8.5 6.1-2-0.1-3.8-0.7-2.7-2.3-4.7-5.4z"/>
	</g>
	<g>
		<path fill-rule="evenodd" class="s22" d="m245.1 28.2q3.2 0.1 6.2 0.8 0 1.1 0 2.3 3.4 1.8 6.9 3.8 1.3 0.9 1.5 2.3-1.2 0.2-2.3-0.4-6.4-4.1-12.3-8.8z"/>
	</g>
	<g>
		<path fill-rule="evenodd" class="s23" d="m269.7 45.8q-4.2-3.4-8.4-6.9-1.6 0-1.6-1.5-0.2-1.4-1.5-2.3-3.5-2-6.9-3.8 0-1.2 0-2.3-3-0.7-6.2-0.8 0-0.8 0-1.5 3.8 0.9 7.7 1.5 0-1.2 0-2.3 1.4-0.3 2.3 0.8-1.1 1.5-2.3 3 2.1 0.9 4.2 1.6 1.6-4.6 3.1 0 1.3-1 2.7-1.6 0.3 4 1.5 8.5 1.4 3 4.6 3.8 1 1.8 0.8 3.8z"/>
	</g>
	<g>
		<path fill-rule="evenodd" class="s24" d="m286.6 29.7q6.4 2.2 9.2 8.5-3.9-2.2-6.9-5.8-1.1-0.5-2.3-0.4 0-1.1 0-2.3z"/>
	</g>
	<g>
		<path fill-rule="evenodd" class="s25" d="m21.7 16.7q0.4 0 0.8 0 7.9 1.7 12.7 8.4 5.6 11.4 6.5 23.8-1.2 0-2.3 0-0.2-12.8-6.9-23.8-4.9-5-10.8-8.4z"/>
	</g>
	<g>
		<path fill-rule="evenodd" class="s26" d="m77.8 29q-1.7 4-1.6 8.4-1.6 0.7-2.3 2.3-0.2-2.3 0.4-4.6 1.1-3.5 3.5-6.1z"/>
	</g>
	<g>
		<path fill-rule="evenodd" class="s27" d="m295.8 38.2q2.2 1.7 3.1 4.6-3.3-1.1-3.1-4.6z"/>
	</g>
	<g>
		<path fill-rule="evenodd" class="s28" d="m261.3 38.9q4.2 3.5 8.4 6.9 3 4.2 3.8 9.3-5.6-8.4-12.2-16.2z"/>
	</g>
	<g>
		<path fill-rule="evenodd" class="s29" d="m298.9 42.8q2.2 1 3.8 3 2.9 4.3 5.8 8.5 1.8 2.8 1.9 6.1-1.9-0.8-1.5-3-1.2 0-2.3 0-1.4-7.2-7.3-11.6-0.6-1.4-0.4-3z"/>
	</g>
	<g>
		<path fill-rule="evenodd" class="s30" d="m273.5 55.1q2.1 0.9 3.1 3 1.5 1.7 0 3.1-2.2-2.6-3.1-6.1z"/>
	</g>
	<g>
		<path fill-rule="evenodd" class="s31" d="m44 61.2q1.4 0.1 1.9 1.5 0.6 12.5 2.3 24.6 1 45.9-0.4 91.8 0.9 4 1.6 8-1.7 4.2-1.6 8.8 0.5 6.4 0.8 12.7-0.5 15.9-2.7 31.5-0.4-5.8-0.8-11.5-0.4-0.7-1.1-0.8 0-83.3 0-166.6z"/>
	</g>
	<g>
		<path fill-rule="evenodd" class="s32" d="m42.4 52.8q2 3.8 1.6 8.4 0 83.3 0 166.6 0.2 60.3-0.4 120.5-0.4 0.7-1.2 0.8 0-2.7 0-5.4 1.6-145.3 0-290.9z"/>
	</g>
	<g>
		<path fill-rule="evenodd" class="s33" d="m306.6 57.4q1.1 0 2.3 0-0.4 2.2 1.5 3-0.4 2.3 1.5 3.1 0 0.8 0 1.5-0.4 2.3 1.6 3.1 0 0.8 0 1.5-0.6 3 1.5 4.7 0 0.7 0 1.5 0 1.9 0 3.8-0.4 0-0.8 0-2.1-11.7-7.6-22.2z"/>
	</g>
	<g>
		<path fill-rule="evenodd" class="s34" d="m310.4 60.4q1.9 0.8 1.5 3.1-1.9-0.8-1.5-3.1z"/>
	</g>
	<g>
		<path fill-rule="evenodd" class="s35" d="m276.6 62.7q1.2 0 2.3 0 0.9 4.6 3.1 8.5 0 3.1 0 6.1-1.3-0.1-1.5-1.5-2.1-6.6-3.9-13.1z"/>
	</g>
	<g>
		<path fill-rule="evenodd" class="s36" d="m311.9 65q2 0.8 1.6 3.1-2-0.8-1.6-3.1z"/>
	</g>
	<g>
		<path fill-rule="evenodd" class="s37" d="m313.5 69.6q2 1.7 1.5 4.7-2.1-1.7-1.5-4.7z"/>
	</g>
	<g>
		<path fill-rule="evenodd" class="s38" d="m73.9 39.7q-1.1 36-0.7 72.2 0 10.3 0 20.7 0 31.5 0 63 6.1 0 12.2 0 0.8 0 1.6 0 3.9 4 10 3 0.3 0 0.7 0 1.2 2.1 3.9 1.6 1.6 2 4.6 1.5 0.3 1.5 1.5 2.3-9.4-2.3-18.4-5.8-8.8-1.3-17.7-1.9-1.5-73.3 0-146.6 1-4.6 1.2-9.2 0.4-0.7 1.1-0.8z"/>
	</g>
	<g>
		<path fill-rule="evenodd" class="s39" d="m315 75.8q2.2 2.9 1.5 6.9-1.9-0.8-1.5-3.1 0-1.9 0-3.8z"/>
	</g>
	<g>
		<path fill-rule="evenodd" class="s40" d="m76.2 37.4q0.5 3.7-1.1 6.9-0.6 33.8-0.4 67.6-0.8 0-1.5 0-0.4-36.2 0.7-72.2 0.7-1.6 2.3-2.3z"/>
	</g>
	<g>
		<path fill-rule="evenodd" class="s41" d="m282 78.9q2.3 14.1 1.5 29.1-0.7 0-1.5 0 0-14.6 0-29.1z"/>
	</g>
	<g>
		<path fill-rule="evenodd" class="s42" d="m316.5 85.8q0.7 0.1 1.2 0.7 0.2 4.8 0.4 9.6 0 5.3-1.6 9.6 0-9.9 0-19.9z"/>
	</g>
	<g>
		<path fill-rule="evenodd" class="s43" d="m138.4 91.9q0.2 3.5-3.1 4.6-0.1-3.5 3.1-4.6z"/>
	</g>
	<g>
		<path fill-rule="evenodd" class="s44" d="m138.4 91.9q7.9-0.3 6.2 7.7-0.8 0-1.6 0-1.1-0.1-1.9 0.8-2.5 7.5-6.1 14.5-0.8 4-2 7.7-1.7 3.6-3.8 6.9 2.2-3.3-1.5-4.6-1.2 4.9-3.1 9.2 0-2.6 0-5.3 4.6-16.4 10.7-32.3 3.3-1.1 3.1-4.6z"/>
	</g>
	<g>
		<path fill-rule="evenodd" class="s45" d="m144.6 99.6q1.7-8-6.2-7.7 1-1.4 3.1-1.5 5.1 0.1 4.6 5.4-0.1 2.4-1.5 3.8z"/>
	</g>
	<g>
		<path fill-rule="evenodd" class="s46" d="m314.2 79.6q0.4 0 0.8 0-0.4 2.3 1.5 3.1 0 1.5 0 3.1 0 10 0 19.9 0 0.8 0 1.6-1.8 2.5-2.3 6.1-1.1 3.4-0.7 6.9-0.8 0-1.6 0 4.4-20.1 2.3-40.7z"/>
	</g>
	<g>
		<path fill-rule="evenodd" class="s47" d="m143 99.6q0.8 0 1.6 0 0.4 2.3-1.6 3.1 0-1.6 0-3.1z"/>
	</g>
	<g>
		<path fill-rule="evenodd" class="s48" d="m143 99.6q0 1.5 0 3.1-1.8 0.5-2.7 2.3-2.1 5.7-3.8 11.5-1.4 3.3-3.5 6.1 1.2-3.7 2-7.7 3.6-7 6.1-14.5 0.8-0.9 1.9-0.8z"/>
	</g>
	<g>
		<path fill-rule="evenodd" class="s49" d="m73.2 111.9q0.7 0 1.5 0 0 10.3 0 20.7-0.8 0-1.5 0 0-10.4 0-20.7z"/>
	</g>
	<g>
		<path fill-rule="evenodd" class="s50" d="m282 108q0.8 0 1.5 0 0.2 3.9-0.4 7.7-0.4 0.7-1.1 0.8 0-1.9 0-3.9 0-2.3 0-4.6z"/>
	</g>
	<g>
		<path fill-rule="evenodd" class="s51" d="m316.5 107.3q0.2 3.8-0.3 7.6-0.9 3.1-2.7 5.4-0.4-3.5 0.7-6.9 0.5-3.6 2.3-6.1z"/>
	</g>
	<g>
		<path fill-rule="evenodd" class="s52" d="m282 71.2q0.7 2.3 1.9 4.6 0.6 10.8 1.9 21.5-1.3 13.5-3.4 26.9-0.8 1-1.9 1.5 0.3-4.7 1.5-9.2 0.7-0.1 1.1-0.8 0.6-3.8 0.4-7.7 0.8-15-1.5-29.1 0-0.8 0-1.6 0-3 0-6.1z"/>
	</g>
	<g>
		<path fill-rule="evenodd" class="s53" d="m311.9 120.3q0.8 0 1.6 0 0.5 3-1.6 4.6 0-1.9 0-3.8 0-0.4 0-0.8z"/>
	</g>
	<g>
		<path fill-rule="evenodd" class="s54" d="m41.7 49.7q1.1 1.2 0.7 3.1 1.6 145.6 0 290.9 0.4-140.7-0.7-281 0-6.5 0-13z"/>
	</g>
	<g>
		<path fill-rule="evenodd" class="s55" d="m282 112.6q0 2 0 3.9-1.2 4.5-1.5 9.2 0.3 2.2-1.6 3.1-1.1 0-2.3 0 1.8-7.2 3.9-14.2 0.2-1.6 1.5-2z"/>
	</g>
	<g>
		<path fill-rule="evenodd" class="s56" d="m135.3 96.5q-6.1 15.9-10.7 32.3-4.7 12.5-5.8 26.1-0.8 4.5-2.6 8.4 2.2-30.4 13.8-58.3 2.1-4.9 5.3-8.5z"/>
	</g>
	<g>
		<path fill-rule="evenodd" class="s57" d="m311.9 124.9q0.4 2.3-1.5 3.1-0.4-2.3 1.5-3.1z"/>
	</g>
	<g>
		<path fill-rule="evenodd" class="s58" d="m311.9 121.1q0 1.9 0 3.8-1.9 0.8-1.5 3.1-1.6 6.4-5 12.3-1.6 1.4-3.4 2.3 0-1.6 0-3.1 1.4-0.2 2.3-1.5 3.6-7.4 5.7-15.4 0.8-1 1.9-1.5z"/>
	</g>
	<g>
		<path fill-rule="evenodd" class="s59" d="m276.6 128.8q0.9 5-3.1 7.6 1-4.1 3.1-7.6z"/>
	</g>
	<g>
		<path fill-rule="evenodd" class="s60" d="m124.6 128.8q0 2.7 0 5.3-0.7 0.2-1.2 0.8-1.8 12.3-4.6 24.6-0.3 6.9-0.7 13.8-0.3 1-1.2 1.5-0.4 0-0.7 0 0-3.8 0-7.6 0-2 0-3.9 1.8-3.9 2.6-8.4 1.1-13.6 5.8-26.1z"/>
	</g>
	<g>
		<path fill-rule="evenodd" class="s61" d="m133 122.6q-1.4 8-4.2 15.4-1 9-3 17.6-2.3 10.6-2 21.5-0.7 0.2-1.1 0.8-0.6 10.7-0.4 21.5-0.8-5.4-0.8-11.1 1.6-13.9 1.9-28.1 3-15.2 5.8-30.7 2.1-3.3 3.8-6.9z"/>
	</g>
	<g>
		<path fill-rule="evenodd" class="s62" d="m276.6 128.8q1.2 0 2.3 0-0.8 6.6-5.4 11.5-1 5.6-6.1 7.7 2.3-2.9 4.2-6.2 1.7-2.5 1.9-5.4 4-2.6 3.1-7.6z"/>
	</g>
	<g>
		<path fill-rule="evenodd" class="s63" d="m273.5 136.4q-0.2 2.9-1.9 5.4-1.9 3.3-4.2 6.2 0 0.7 0 1.5-2.3 1.5-4.6 3.1-0.2-1.2 0.4-2.3 5.5-6.9 10.3-13.9z"/>
	</g>
	<g>
		<path fill-rule="evenodd" class="s64" d="m302 139.5q0 1.5 0 3.1-2.4 1.5-4.7 3.1 1.8-3.6 4.7-6.2z"/>
	</g>
	<g>
		<path fill-rule="evenodd" class="s65" d="m129.2 129.5q-2.8 15.5-5.8 30.7-0.3 14.2-1.9 28.1 0 5.7 0.8 11.1 0 0.8 0 1.5-3.3 0.4-5-2.3-0.6-11.9-0.4-23.8 0.9-0.5 1.2-1.5 0.4-6.9 0.7-13.8 2.8-12.3 4.6-24.6 0.5-0.6 1.2-0.8 1.9-4.3 3.1-9.2 3.7 1.3 1.5 4.6z"/>
	</g>
	<g>
		<path fill-rule="evenodd" class="s66" d="m302 142.6q-7.6 13.3-20.8 21.5-1.3 1.1-3.1 0.7 0.3-1.4 1.6-2.3 4.6-1.8 7.7-5.3 4.6-6.2 9.9-11.5 2.3-1.6 4.7-3.1z"/>
	</g>
	<g>
		<path fill-rule="evenodd" class="s67" d="m143 102.7q-0.6 4.6-1.9 9.2-5.5 10.9-8.4 23-1.8 12.6-5.4 24.6-1.6 12.2-2.3 24.5-0.5 0.7-1.2 0.8 0-3.8 0-7.7-0.3-10.9 2-21.5 2-8.6 3-17.6 2.8-7.4 4.2-15.4 2.1-2.8 3.5-6.1 1.7-5.8 3.8-11.5 0.9-1.8 2.7-2.3z"/>
	</g>
	<g>
		<path fill-rule="evenodd" class="s68" d="m262.8 152.6q0 1.5-1.5 1.5 0-1.5 1.5-1.5z"/>
	</g>
	<g>
		<path fill-rule="evenodd" class="s69" d="m267.4 149.5q-0.6 3.1-3.1 5-3.2 1.6-6.1 3.4 1.2-0.8 1.5-2.3 0-1.5 1.6-1.5 1.5 0 1.5-1.5 2.3-1.6 4.6-3.1z"/>
	</g>
	<g>
		<path fill-rule="evenodd" class="s70" d="m259.7 155.6q-0.3 1.5-1.5 2.3-1.2 1.1-3.1 0.8 1.1-3.2 4.6-3.1z"/>
	</g>
	<g>
		<path fill-rule="evenodd" class="s71" d="m287.4 157.2q-3.1 3.5-7.7 5.3-1.3 0.9-1.6 2.3-2.2-0.3-3 1.6-1.2 0-2.3 0 0-1.2 0-2.3 7.6-2.9 14.6-6.9z"/>
	</g>
	<g>
		<path fill-rule="evenodd" class="s72" d="m255.1 158.7q0.3 1.4-0.8 2.3-6.8 5.4-15.3 7.7 0-1.2 0-2.3 8.5-2.9 16.1-7.7z"/>
	</g>
	<g>
		<path fill-rule="evenodd" class="s73" d="m278.1 164.8q-0.7 2-3 1.6 0.8-1.9 3-1.6z"/>
	</g>
	<g>
		<path fill-rule="evenodd" class="s74" d="m272.8 166.4q1.1 0 2.3 0-0.8 1.9-3.1 1.5-0.2-1.1 0.8-1.5z"/>
	</g>
	<g>
		<path fill-rule="evenodd" class="s75" d="m239 166.4q0 1.1 0 2.3-0.8 0-1.5 0-9.4 3.1-19.2 3.1-11.9 0-23.8 0 12.2-2.1 25.3-2 9.7-1.4 19.2-3.4z"/>
	</g>
	<g>
		<path fill-rule="evenodd" class="s76" d="m194.5 171.8q11.9 0 23.8 0-11.5 2.2-23.8 1.5 0 2.7 0 5.4-1.8-1.5-2.3-3.9-0.5-2.8 2.3-3z"/>
	</g>
	<g>
		<path fill-rule="evenodd" class="s77" d="m272 167.9q-5.3 3.5-11.5 6.2 3.2 0.5 5.4 2.3-8.7 0.5-16.9-2 5.8-1.1 11.5-2.6 2.1-0.7 3.1-2.3 4.1-1.1 8.4-1.6z"/>
	</g>
	<g>
		<path fill-rule="evenodd" class="s78" d="m237.5 168.7q0.1 1-0.8 1.5-2.7 1.1-5.4 1.9-17.9 2.6-36.1 2-0.2 2.4 0.8 4.6-0.8 0-1.5 0 0-2.7 0-5.4 12.3 0.7 23.8-1.5 9.8 0 19.2-3.1z"/>
	</g>
	<g>
		<path fill-rule="evenodd" class="s79" d="m116.2 167.2q0 3.8 0 7.6 0 2.7 0 5.4-0.8 0-1.6 0-0.7-7 1.6-13z"/>
	</g>
	<g>
		<path fill-rule="evenodd" class="s80" d="m263.6 169.5q-1 1.6-3.1 2.3-5.7 1.5-11.5 2.6 8.2 2.5 16.9 2 0.3 0 0.7 0 2.9 2.1 6.9 1.5 2.5 2.2 6.2 1.5 2 2.2 5.4 1.6 0.3 0 0.7 0 1.2 2 3.9 1.5 0 0.8 0 1.5-21.2-5.8-43.4-8.4-2.1-0.6-0.4-1.9 8.9-2 17.7-4.2z"/>
	</g>
	<g>
		<path fill-rule="evenodd" class="s81" d="m266.6 176.4q4.1-0.7 6.9 1.5-4 0.6-6.9-1.5z"/>
	</g>
	<g>
		<path fill-rule="evenodd" class="s82" d="m273.5 177.9q3.7-0.6 6.2 1.5-3.7 0.7-6.2-1.5z"/>
	</g>
	<g>
		<path fill-rule="evenodd" class="s83" d="m194.5 178.7q0.7 0 1.5 0 21.1-0.8 41.5 1.5-20.8-1-41.5-0.8-1.1 0.2-1.5-0.7z"/>
	</g>
	<g>
		<path fill-rule="evenodd" class="s84" d="m196 179.4q20.7-0.2 41.5 0.8 0 0.4 0 0.8-6.2 0-12.3 0-14.6-0.8-29.2-1.6z"/>
	</g>
	<g>
		<path fill-rule="evenodd" class="s85" d="m279.7 179.4q2.3-0.2 4.6 0.4 0.6 0.5 0.8 1.2-3.4 0.6-5.4-1.6z"/>
	</g>
	<g>
		<path fill-rule="evenodd" class="s86" d="m192.2 174.8q0.5 2.4 2.3 3.9 0.4 0.9 1.5 0.7 14.6 0.8 29.2 1.6-15.4 0-30.7 0-3.9-1.4-3.5-5.4 0.5-0.6 1.2-0.8z"/>
	</g>
	<g>
		<path fill-rule="evenodd" class="s87" d="m194.5 181q15.3 0 30.7 0 6.1 0 12.3 0 11.2 0.9 22.2 3.8 2.1 0.7 3.1 2.3-12.5-3.3-25.3-4.2-21.2-0.4-42.3-0.8-0.6-0.4-0.7-1.1z"/>
	</g>
	<g>
		<path fill-rule="evenodd" class="s88" d="m285.8 181q2.7-0.5 3.9 1.5-2.7 0.5-3.9-1.5z"/>
	</g>
	<g>
		<path fill-rule="evenodd" class="s89" d="m237.5 181q0-0.4 0-0.8 13.7 0.3 26.8 5 1.7 0.4 2.3 1.9-1.9 0-3.8 0-1-1.6-3.1-2.3-11-2.9-22.2-3.8z"/>
	</g>
	<g>
		<path fill-rule="evenodd" class="s90" d="m73.2 132.6q0.7 0 1.5 0-0.2 30.3 0.4 60.7 5.6 0.3 10.3 2.3-6.1 0-12.2 0 0-31.5 0-63z"/>
	</g>
	<g>
		<path fill-rule="evenodd" class="s91" d="m289.7 184q4.9 1.4 9.2 3.9-5.4-0.2-9.2-3.9z"/>
	</g>
	<g>
		<path fill-rule="evenodd" class="s92" d="m262.8 187.1q1.9 0 3.8 0 1 0.4 0.8 1.5-3 0.6-4.6-1.5z"/>
	</g>
	<g>
		<path fill-rule="evenodd" class="s93" d="m114.6 180.2q0.8 0 1.6 0 0.7 6.6-1.6 12.3 0-1.9 0-3.9 0-4.2 0-8.4z"/>
	</g>
	<g>
		<path fill-rule="evenodd" class="s94" d="m116.2 174.8q0.3 0 0.7 0-0.2 11.9 0.4 23.8 1.7 2.7 5 2.3 0 1.2 0 2.3-1.2 0-2.3 0-2-2.7-5.4-3.8 0-0.4 0-0.8 0-2.3 0-4.6 0-0.4 0-0.7 0-0.4 0-0.8 2.3-5.7 1.6-12.3 0-2.7 0-5.4z"/>
	</g>
	<g>
		<path fill-rule="evenodd" class="s95" d="m267.4 188.6q2.3-0.3 3.1 1.6-2.3 0.4-3.1-1.6z"/>
	</g>
	<g>
		<path fill-rule="evenodd" class="s96" d="m270.5 190.2q2.3-0.4 3 1.5-2.2 0.4-3-1.5z"/>
	</g>
	<g>
		<path fill-rule="evenodd" class="s97" d="m289.7 182.5q1.5-0.2 3 0.4 6.1 3.1 12.3 6.1 3.3 2 5.4 5-6.4-2.2-11.5-6.1-4.3-2.5-9.2-3.9 0-0.7 0-1.5z"/>
	</g>
	<g>
		<path fill-rule="evenodd" class="s98" d="m123.8 177.1q0 3.9 0 7.7 0.8 9.7-1.5 18.4 0-1.1 0-2.3 0-0.7 0-1.5-0.2-10.8 0.4-21.5 0.4-0.6 1.1-0.8z"/>
	</g>
	<g>
		<path fill-rule="evenodd" class="s99" d="m114.6 188.6q0 2 0 3.9 0 0.4 0 0.8-1.3-0.4-1.5-2-0.1-1.9 1.5-2.7z"/>
	</g>
	<g>
		<path fill-rule="evenodd" class="s100" d="m282.8 29q1.8 0.6 3.8 0.7 0 1.2 0 2.3 1.2-0.1 2.3 0.4 3 3.6 6.9 5.8-0.2 3.5 3.1 4.6-0.2 1.6 0.4 3 5.9 4.4 7.3 11.6 5.5 10.5 7.6 22.2 2.1 20.6-2.3 40.7 0 0.4 0 0.8-1.1 0.5-1.9 1.5-2.1 8-5.7 15.4-0.9 1.3-2.3 1.5-2.9 2.6-4.7 6.2-5.3 5.3-9.9 11.5-7 4-14.6 6.9 0 1.1 0 2.3-1 0.4-0.8 1.5-4.3 0.5-8.4 1.6-8.8 2.2-17.7 4.2-1.7 1.3 0.4 1.9 22.2 2.6 43.4 8.4 3.8 3.7 9.2 3.9 5.1 3.9 11.5 6.1-0.2 1.2 0.8 1.6 0 1.1 0 2.3 1.5-0.2 3 0.3 1.4 2.4 3.9 3.5 3.8 3.4 7.7 6.9 2.9 1.8 5.3 4.6 1.6 4.7 6.2 6.2 0.5 4.3 4.6 6.1-0.4 2.3 1.5 3.1 1.4 6.1 4.6 11.5 4.5 10.9 6.9 22.3 2.3 25.5-2.7 50.6-1.2 3.9-2.6 7.7-1.6 4.6-3.1 9.2-1.2 0-2.3 0-0.8 3.4-0.8 6.9-1.5 0-1.5 1.6-1.2 0-2.3 0-0.4 2.3-0.8 4.6 0 0.7 0 1.5-5.3 2.7-8.4 7.7-3.2 1.1-4.6 4.2-2.2 1.1-4.7 1.5 0.8 2 0 4.3-2.3 0.7-3 3-1.8 0.1-3.5 0.8-6.8 4.5-14.2 8.4-0.4 0.8-0.8 1.6-0.7 0-1.5 0-5-1.1-9.6-3.1-1.6 1.6-3.8 2.3-1.6-3.3-4.2-5.4 1.4-1.6 3.8-2.3 0.9-1.4 0.8-3 2.2-0.3 3.8-2 4.9-5.4 9.2-11.1 3.1-3.1 6.2-6.1 4.1-2.7 4.6-7.7 4.2-3.1 4.6-8.5 2.3-3.4 3.4-7.6 9.1-36.5 1.6-73.7-1.3-5.3-3.5-10-0.8-1.4-0.8-3.1-1.1 0-2.3 0 0.4-2.3-1.5-3.1 0.4-2.2-1.5-3-0.8-1.6-1.6-3.1 0.4-2.3-1.5-3.1-1-6.3-6.9-8.4-0.5-2-1.6-3.9-2-2.9-4.6-5.3-2.6-4.5-7.6-4.6-0.6-2.9-3.1-4.6-2.7-1-4.6-3.1-1.8-1.1-3.9-0.8-0.7-1.9-3-1.5-0.8-1.9-3.1-1.6 0.2-1.1-0.8-1.5-0.6-1.5-2.3-1.9-13.1-4.7-26.8-5-20.4-2.3-41.5-1.5-1-2.2-0.8-4.6 18.2 0.6 36.1-2 2.7-0.8 5.4-1.9 0.9-0.5 0.8-1.5 0.7 0 1.5 0 8.5-2.3 15.3-7.7 1.1-0.9 0.8-2.3 1.9 0.3 3.1-0.8 2.9-1.8 6.1-3.4 2.5-1.9 3.1-5 0-0.8 0-1.5 5.1-2.1 6.1-7.7 4.6-4.9 5.4-11.5 1.9-0.9 1.6-3.1 1.1-0.5 1.9-1.5 2.1-13.4 3.4-26.9-1.3-10.7-1.9-21.5-1.2-2.3-1.9-4.6-2.2-3.9-3.1-8.5-1.1 0-2.3 0 0-0.7 0-1.5 1.5-1.4 0-3.1-1-2.1-3.1-3-0.8-5.1-3.8-9.3 0.2-2-0.8-3.8-3.2-0.8-4.6-3.8-1.2-4.5-1.5-8.5-1.4 0.6-2.7 1.6-1.5-4.6-3.1 0-2.1-0.7-4.2-1.6 1.2-1.5 2.3-3-0.9-1.1-2.3-0.8 0 1.1 0 2.3-3.9-0.6-7.7-1.5-1.5-1.2-1.5-3.1-2.6-1.1-5.4-1.6 2-1.5 4.2 0 0.5-1 1.6-1.5 5-0.4 9.6-2.3 1.4 2.3 3.4 0.8 2.4 0.9 5 1.1 1.6 1.6 0 3.1 4.3 3.7 8.1-0.4 1.5 2.8 2.3 0 2.2 2.3 4.6 4.6 0.6-2 1.9-0.7-0.9 1-0.4 2.3 2.1-1.5 4.3 0z"/>
	</g>
	<g>
		<path fill-rule="evenodd" class="s101" d="m310.4 194q3.5-0.1 4.6 3.1-2.1-0.4-3.8-1.5-1-0.4-0.8-1.6z"/>
	</g>
	<g>
		<path fill-rule="evenodd" class="s102" d="m114.6 194q0 2.3 0 4.6-1.6-0.7-1.5-2.7 0.2-1.5 1.5-1.9z"/>
	</g>
	<g>
		<path fill-rule="evenodd" class="s103" d="m273.5 191.7q2.1-0.3 3.9 0.8 1.9 2.1 4.6 3.1 2.5 1.7 3.1 4.6-3.9-3.1-8.5-5-1.9-1.5-3.1-3.5z"/>
	</g>
	<g>
		<path fill-rule="evenodd" class="s104" d="m311.2 195.6q1.7 1.1 3.8 1.5 1.5 0 1.5 1.5 0.8 1.6 1.6 3.1-2.5-1.1-3.9-3.5-1.5-0.5-3-0.3 0-1.2 0-2.3z"/>
	</g>
	<g>
		<path fill-rule="evenodd" class="s105" d="m87 195.6q5.8-0.4 10 3-6.1 1-10-3z"/>
	</g>
	<g>
		<path fill-rule="evenodd" class="s106" d="m97.7 198.6q2.7-0.5 3.9 1.6-2.7 0.5-3.9-1.6z"/>
	</g>
	<g>
		<path fill-rule="evenodd" class="s107" d="m101.6 200.2q2.9-0.6 4.6 1.5-3 0.5-4.6-1.5z"/>
	</g>
	<g>
		<path fill-rule="evenodd" class="s108" d="m316.5 198.6q3.6-0.1 4.6 3.1-1.5 0-3 0-0.8-1.5-1.6-3.1z"/>
	</g>
	<g>
		<path fill-rule="evenodd" class="s109" d="m114.6 199.4q3.4 1.1 5.4 3.8-4.4 0.3-5.4-3.8z"/>
	</g>
	<g>
		<path fill-rule="evenodd" class="s110" d="m285.1 200.2q5 0.1 7.6 4.6-2-1.4-4.6-1.6-2-1-3-3z"/>
	</g>
	<g>
		<path fill-rule="evenodd" class="s111" d="m106.2 201.7q3.9 0.1 6.1 3.1-2.4 0-4.6-0.8-1.2-0.8-1.5-2.3z"/>
	</g>
	<g>
		<path fill-rule="evenodd" class="s112" d="m107.7 204q2.2 0.8 4.6 0.8 0.4 0 0.8 0 1.1 1.5 2.3 3-4-1.9-7.7-3.8z"/>
	</g>
	<g>
		<path fill-rule="evenodd" class="s113" d="m318.1 201.7q1.5 0 3 0 2.3 0.8 3.1 3.1 1.2 1.7 1.6 3.8-3.9-3.5-7.7-6.9z"/>
	</g>
	<g>
		<path fill-rule="evenodd" class="s114" d="m113.1 204.8q7.3 2.3 13 7.6 1.1 1 0.8 2.4-5.8-3.5-11.5-7-1.2-1.5-2.3-3z"/>
	</g>
	<g>
		<path fill-rule="evenodd" class="s115" d="m324.2 204.8q4.1 1.7 6.9 5.3 4.1 4.1 6.2 9.3-4.6-1.5-6.2-6.2-2.4-2.8-5.3-4.6-0.4-2.1-1.6-3.8z"/>
	</g>
	<g>
		<path fill-rule="evenodd" class="s116" d="m288.1 203.2q2.6 0.2 4.6 1.6 2.6 2.4 4.6 5.3 1.1 1.9 1.6 3.9-5.8-5-10.8-10.8z"/>
	</g>
	<g>
		<path fill-rule="evenodd" class="s117" d="m298.9 214q5.9 2.1 6.9 8.4-1.4-0.2-2.3-1.5-2.3-3.5-4.6-6.9z"/>
	</g>
	<g>
		<path fill-rule="evenodd" class="s118" d="m337.3 219.4q3.9 1.8 4.6 6.1-4.1-1.8-4.6-6.1z"/>
	</g>
	<g>
		<path fill-rule="evenodd" class="s119" d="m305.8 222.4q1.9 0.8 1.5 3.1-1.9-0.8-1.5-3.1z"/>
	</g>
	<g>
		<path fill-rule="evenodd" class="s120" d="m108.5 227q0.7 0 1.5 0 1.5 0.8 3.1 1.6 0 1.5 0 3-3.1-1.5-4.6-4.6z"/>
	</g>
	<g>
		<path fill-rule="evenodd" class="s121" d="m341.9 225.5q1.9 0.8 1.5 3.1-1.9-0.8-1.5-3.1z"/>
	</g>
	<g>
		<path fill-rule="evenodd" class="s122" d="m308.9 228.6q1.9 0.8 1.5 3-1.9-0.7-1.5-3z"/>
	</g>
	<g>
		<path fill-rule="evenodd" class="s123" d="m113.1 228.6q4.6 2.4 4.6 7.6-2.8-1.8-4.6-4.6 0-1.5 0-3z"/>
	</g>
	<g>
		<path fill-rule="evenodd" class="s124" d="m310.4 231.6q1.9 0.8 1.5 3.1-1.9-0.8-1.5-3.1z"/>
	</g>
	<g>
		<path fill-rule="evenodd" class="s125" d="m343.4 228.6q4.8 4.8 6.9 11.5-1.1 0-2.3 0-3.2-5.4-4.6-11.5z"/>
	</g>
	<g>
		<path fill-rule="evenodd" class="s126" d="m74.7 204q5.9 1.1 11.5 3.5 12.2 5.9 21.5 15.7 1.4 1.9 2.3 3.8-0.8 0-1.5 0-1.1-2.1-3.1-3-0.9-2.8-3.8-3.1-1.2-2.5-3.1-4.6-6.3-4.7-13.8-6.9-3-3.3-7.7-3.1-0.4 0-0.8 0-0.8-1.9-3-1.5 0 38.7 0 77.5 0 6.2 0 12.3 0 7.3 0 14.6 0 5 0 10-0.8 18.1 1.5 35.3-0.6 4 1.5 6.9-0.6 3.7 1.6 6.1 0 1.6 0 3.1-2.1-1.8-3.1-4.6-0.7-4.4-1.9-8.4-0.6-4.6-0.4-9.3-1.1-72.1-0.8-144.3 1.6 0 3.1 0z"/>
	</g>
	<g>
		<path fill-rule="evenodd" class="s127" d="m101.6 220.9q2.9 0.3 3.8 3.1-2.6-0.7-3.8-3.1z"/>
	</g>
	<g>
		<path fill-rule="evenodd" class="s128" d="m84.7 209.4q7.5 2.2 13.8 6.9 1.9 2.1 3.1 4.6-8.9-5.4-16.9-11.5z"/>
	</g>
	<g>
		<path fill-rule="evenodd" class="s129" d="m77 206.3q4.7-0.2 7.7 3.1-1.6 0.2-3.1-0.4-2.7-0.9-4.6-2.7z"/>
	</g>
	<g>
		<path fill-rule="evenodd" class="s130" d="m311.9 234.7q1.2 0 2.3 0 0 1.7 0.8 3.1 0 1.9 0 3.8-1.8-1.4-2.7-3.8-0.5-1.5-0.4-3.1z"/>
	</g>
	<g>
		<path fill-rule="evenodd" class="s131" d="m39.4 48.9q1.1 0 2.3 0 0 0.4 0 0.8 0 6.5 0 13 0 144.4 0 288.7-1.2 0-2.3 0 1.5-151.2 0-302.5z"/>
	</g>
	<g>
		<path fill-rule="evenodd" class="s132" d="m150.7 238.6q5.5 4.2 9.2 10.3 1.1 0.6 2.3 0.4 0.4 2.1 1.6 3.8-3-1.2-5-3.8-4.3-5.2-8.1-10.7z"/>
	</g>
	<g>
		<path fill-rule="evenodd" class="s133" d="m41.7 62.7q1.1 140.3 0.7 281 0 2.7 0 5.4 0.2 3.1-0.3 6.2-0.1 2.4-2 3.8 0.4-3.3-0.7-6.2 0-0.7 0-1.5 1.1 0 2.3 0 0-144.3 0-288.7z"/>
	</g>
	<g>
		<path fill-rule="evenodd" class="s134" d="m117.7 236.2q3.5 1.6 6.1 4.7 1.1 3.7 3.9 6.1 1.7 1.5 1.5 3.8-7-6.2-11.5-14.6z"/>
	</g>
	<g>
		<path fill-rule="evenodd" class="s135" d="m120.8 246.2q-2.3-0.7-4.3 0-0.5 5.4-0.3 10.8-2.3-6.4-1.6-13.8 4.3-0.7 6.2 3z"/>
	</g>
	<g>
		<path fill-rule="evenodd" class="s136" d="m126.9 214.8q1.6-0.2 3.1 0.3 19.1 14.4 32.2 34.2-1.2 0.2-2.3-0.4-3.7-6.1-9.2-10.3-8.7-9.9-18.8-18.5-0.6-1.1-0.4-2.3-3.5 0.2-4.6-3z"/>
	</g>
	<g>
		<path fill-rule="evenodd" class="s137" d="m315 243.2q2.1 1.6 1.5 4.6-2-1.8-1.5-4.6z"/>
	</g>
	<g>
		<path fill-rule="evenodd" class="s138" d="m348 240.1q1.2 0 2.3 0 2 5.2 3.1 10.7-0.6 3.4 1.5 5.4 0 0.8 0 1.5 0 2.3 0 4.7-2.4-11.4-6.9-22.3z"/>
	</g>
	<g>
		<path fill-rule="evenodd" class="s139" d="m162.2 249.3q1.4 0.3 2.3 1.5 1.5 2.6 2.3 5.4-2.3-0.8-3-3.1-1.2-1.7-1.6-3.8z"/>
	</g>
	<g>
		<path fill-rule="evenodd" class="s140" d="m316.5 250.1q2.1 1.2 1.6 3.8-2-1.2-1.6-3.8z"/>
	</g>
	<g>
		<path fill-rule="evenodd" class="s141" d="m76.2 206.3q-2.3 37.6-1.5 76-0.8 0-1.5 0 0-38.8 0-77.5 2.2-0.4 3 1.5z"/>
	</g>
	<g>
		<path fill-rule="evenodd" class="s142" d="m129.2 250.8q3.2 1.1 3.1 4.6-2.9-1.3-3.1-4.6z"/>
	</g>
	<g>
		<path fill-rule="evenodd" class="s143" d="m353.4 250.8q0.7 0.2 1.1 0.8 0.6 2.3 0.4 4.6-2.1-2-1.5-5.4z"/>
	</g>
	<g>
		<path fill-rule="evenodd" class="s144" d="m120.8 246.2q1.4 0.3 2.3 1.6 2.9 4.5 2.3 9.9 0 1.6 0 3.1-1.6-4.6-3.1-9.2 0.2-1.9-1.5-2.3 0-1.5 0-3.1z"/>
	</g>
	<g>
		<path fill-rule="evenodd" class="s145" d="m127.7 247q3 0.9 4.6 3.8 3.1 5.5 6.1 10.8-2.3-1.6-4.6-3.1-0.8-1.5-1.5-3.1 0.1-3.5-3.1-4.6 0.2-2.3-1.5-3.8z"/>
	</g>
	<g>
		<path fill-rule="evenodd" class="s146" d="m166.8 256.2q3.3 1.1 3.1 4.6-3.2-1.1-3.1-4.6z"/>
	</g>
	<g>
		<path fill-rule="evenodd" class="s147" d="m354.9 257.7q2.1 1.7 1.6 4.7-0.8 0-1.6 0 0-2.4 0-4.7z"/>
	</g>
	<g>
		<path fill-rule="evenodd" class="s148" d="m120.8 249.3q1.7 0.4 1.5 2.3 2.2 11.9 3.8 24.2 0.3 3.4 2.3 5.7 0 0.8 0 1.6 1.9 6.3-0.7 12.3-0.8-2.1-1.9-3.9-5.6-19.5-7-39.9-0.8-1-1.9-1.5-0.3-1.7 0.8-3.1 1.5 1.2 3.1 2.3z"/>
	</g>
	<g>
		<path fill-rule="evenodd" class="s149" d="m122.3 251.6q1.5 4.6 3.1 9.2 1.2 10.4 3 20.7-2-2.3-2.3-5.7-1.6-12.3-3.8-24.2z"/>
	</g>
	<g>
		<path fill-rule="evenodd" class="s150" d="m116.2 257q2.2 5.6 1.5 12.3-0.7-0.2-1.2-0.8-0.5-5.8-0.3-11.5z"/>
	</g>
	<g>
		<path fill-rule="evenodd" class="s151" d="m318.1 257q2.2 3.2 1.5 7.7-0.8-0.5-1.1-1.6-0.6-3-0.4-6.1z"/>
	</g>
	<g>
		<path fill-rule="evenodd" class="s152" d="m74.7 204q-1.5 0-3.1 0-0.3 72.2 0.8 144.3-0.9-0.8-1.2-2.3-0.5-71.7-0.3-143.5 2.6-0.5 3.8 1.5z"/>
	</g>
	<g>
		<path fill-rule="evenodd" class="s153" d="m169.9 260.8q2.2 1.3 4.2 3.1 3.8 6 8.5 11.5 0.7 2.5 1.9 4.6-5.7-3.6-8.1-10-2.7-3.7-6.5-6.1 0-1.5 0-3.1z"/>
	</g>
	<g>
		<path fill-rule="evenodd" class="s154" d="m133.8 258.5q2.3 1.5 4.6 3.1 0.5 2.8 1.6 5.4 1.8-0.1 3 1.5 6.5 12.6 14.6 23.8 0 1.5 0 3.1-1.8-0.5-2.7-2.3-10.6-17.4-21.1-34.6z"/>
	</g>
	<g>
		<path fill-rule="evenodd" class="s155" d="m117.7 270q2.1 2.5 1.5 6.2-2.1-2.5-1.5-6.2z"/>
	</g>
	<g>
		<path fill-rule="evenodd" class="s156" d="m120.8 246.2q0 1.6 0 3.1-1.6-1.1-3.1-2.3-1.1 1.4-0.8 3.1 2.6 17.7 6.2 35.3-1.1-0.7-2.3-0.8 0.6-4-1.6-6.9 0-0.8 0-1.5 0.6-3.7-1.5-6.2 0-0.4 0-0.7 0.7-6.7-1.5-12.3-0.2-5.4 0.3-10.8 2-0.7 4.3 0z"/>
	</g>
	<g>
		<path fill-rule="evenodd" class="s157" d="m169.9 263.9q3.8 2.4 6.5 6.1 2.4 6.4 8.1 10 0.8 3.1 1.5 6.2-2.8-1.4-2.3-4.7-1.3 0.3-2.3-0.7-0.8-3-3.4-4.6-0.4 0.7-0.8 1.5-2-1.1-0.4-2.7-3.3-5.7-6.9-11.1z"/>
	</g>
	<g>
		<path fill-rule="evenodd" class="s158" d="m125.4 257.7q4.2 17.6 8.4 35.4-1.3-0.1-2.3-0.8 0.2-2-0.4-3.8-0.8-3.1-2.7-5.4 0-0.8 0-1.6-1.8-10.3-3-20.7 0-1.5 0-3.1z"/>
	</g>
	<g>
		<path fill-rule="evenodd" class="s159" d="m356.5 265.4q0.7 0.2 1.1 0.8 0.6 12.7 0.4 25.3-0.8 0-1.5 0 0-13 0-26.1z"/>
	</g>
	<g>
		<path fill-rule="evenodd" class="s160" d="m73.2 282.3q0.7 0 1.5 0 0 6.2 0 12.3-0.8 0-1.5 0 0-6.1 0-12.3z"/>
	</g>
	<g>
		<path fill-rule="evenodd" class="s161" d="m119.2 277.7q2.2 2.9 1.6 6.9-0.8-0.1-1.2-0.7-0.6-3.1-0.4-6.2z"/>
	</g>
	<g>
		<path fill-rule="evenodd" class="s162" d="m319.6 272.3q1.5 4.4 1.5 9.6 0 5.3-1.5 9.6 0-9.6 0-19.2z"/>
	</g>
	<g>
		<path fill-rule="evenodd" class="s163" d="m184.5 280q1.8 0.5 2.7 2.3 2.3 3.2 3.4 6.9-1.5-0.7-3-1.5 0-1.5-1.6-1.5-0.7-3.1-1.5-6.2z"/>
	</g>
	<g>
		<path fill-rule="evenodd" class="s164" d="m116.9 250.1q1.1 0.5 1.9 1.5 1.4 20.4 7 39.9 1.1 1.8 1.9 3.9 2.6-6 0.7-12.3 1.9 2.3 2.7 5.4 0.6 1.8 0.4 3.8 1.5 3.3 1.5 6.9-1.1-1.5-2.3 0-2.5-5.6-2.3 1.5-0.3 0-0.7 0-2.4-7.7-4.6-15.3-3.6-17.6-6.2-35.3z"/>
	</g>
	<g>
		<path fill-rule="evenodd" class="s165" d="m187.6 287.7q1.5 0.8 3 1.5 0.5 2.8 1.6 5.4-3.2-2.9-4.6-6.9z"/>
	</g>
	<g>
		<path fill-rule="evenodd" class="s166" d="m356.5 291.5q0.7 0 1.5 0 0.2 3.1-0.4 6.2-0.4 0.6-1.1 0.7 0-3.4 0-6.9z"/>
	</g>
	<g>
		<path fill-rule="evenodd" class="s167" d="m131.5 292.3q1 0.7 2.3 0.8 0.7 0.1 1.2 0.7 2.3 6.4 3.4 13.1-1.7-1.1-2.3-3.1-1.7-2.1-3.1-4.6 0-3.6-1.5-6.9z"/>
	</g>
	<g>
		<path fill-rule="evenodd" class="s168" d="m73.2 294.6q0.7 0 1.5 0 0.3 7.6-1.5 14.6 0-7.3 0-14.6z"/>
	</g>
	<g>
		<path fill-rule="evenodd" class="s169" d="m157.6 292.3q2.6 1.6 3.1 4.6-1.6-0.8-3.1-1.5 0-1.6 0-3.1z"/>
	</g>
	<g>
		<path fill-rule="evenodd" class="s170" d="m319.6 296.1q0.7 4.4-1.5 7.7-0.7-4.4 1.5-7.7z"/>
	</g>
	<g>
		<path fill-rule="evenodd" class="s171" d="m157.6 295.4q1.5 0.7 3.1 1.5 2.8 5.7 6.9 10.8 1.8 4.7 5.4 8.4 1 1.4 0.7 3.1-3.7-2.9-6.5-6.9-4.1-7.6-9.2-14.6-0.6-1.1-0.4-2.3z"/>
	</g>
	<g>
		<path fill-rule="evenodd" class="s172" d="m120.8 284.6q1.2 0.1 2.3 0.8 2.2 7.6 4.6 15.3 2.8 8.3 4.6 16.9-3.6-6.2-6.5-13-1.9-7.6-4.7-14.6-0.5-2.7-0.3-5.4z"/>
	</g>
	<g>
		<path fill-rule="evenodd" class="s173" d="m190.6 289.2q3.4 3.2 6.6 6.9 4.3 6.8 9.2 13.1 0.5 1.1 0.3 2.3-2.4-1.2-4.6-3.1-3.8-6.1-7.6-12.3-0.9-1.2-2.3-1.5-1.1-2.6-1.6-5.4z"/>
	</g>
	<g>
		<path fill-rule="evenodd" class="s174" d="m133 299.2q1.4 2.5 3.1 4.6-0.2 3.1 0.4 6.2 4.2 8.4 8.8 16.5 0.8 1.5 2.3 1.9 2.6 4.9 6.2 9.2 1.5 3.3 2.3 6.9-1.7-0.1-3.1 0.8-1.2-1.7-3.1-2.3-5.2-4.8-7.6-11.5-0.4-2.4-0.8-4.7-1.2 0-2.3 0-0.4-3-0.8-6.1-1.1 0-2.3 0-4.4-9.8-7.7-20-0.2-7.1 2.3-1.5 1.2-1.5 2.3 0z"/>
	</g>
	<g>
		<path fill-rule="evenodd" class="s175" d="m356.5 301.5q0.1 3.1-0.4 6.2-0.5 0.6-1.2 0.7-0.6-4 1.6-6.9z"/>
	</g>
	<g>
		<path fill-rule="evenodd" class="s176" d="m315 237.8q2.2 4.7 3.5 10 7.5 37.2-1.6 73.7-1.1 4.2-3.4 7.6 0-2.3 0-4.6 2.1-2 1.5-5.3 1.8-7.6 3.1-15.4 2.2-3.3 1.5-7.7 0-2.3 0-4.6 1.5-4.3 1.5-9.6 0-5.2-1.5-9.6 0-3.8 0-7.6 0.7-4.5-1.5-7.7 0-1.6 0-3.1 0.5-2.6-1.6-3.8 0-1.2 0-2.3 0.6-3-1.5-4.6 0-0.8 0-1.6 0-1.9 0-3.8z"/>
	</g>
	<g>
		<path fill-rule="evenodd" class="s177" d="m138.4 306.9q1.9 0.8 1.6 3.1-2-0.8-1.6-3.1z"/>
	</g>
	<g>
		<path fill-rule="evenodd" class="s178" d="m354.9 262.4q0.8 0 1.6 0 0 1.5 0 3 0 13.1 0 26.1 0 3.5 0 6.9 0 1.6 0 3.1-2.2 2.9-1.6 6.9 0 0.4 0 0.8-2.1 2-1.5 5.4 0 0.3 0 0.7-2 1.2-1.5 3.9 0 0.7 0 1.5-1.2 0-2.3 0 1.4-3.8 2.6-7.7 5-25.1 2.7-50.6z"/>
	</g>
	<g>
		<path fill-rule="evenodd" class="s179" d="m354.9 309.2q0.6 3.3-1.5 5.4-0.6-3.4 1.5-5.4z"/>
	</g>
	<g>
		<path fill-rule="evenodd" class="s180" d="m140 310q1.9 0.7 1.5 3-1.9-0.8-1.5-3z"/>
	</g>
	<g>
		<path fill-rule="evenodd" class="s181" d="m206.7 311.5q4 1.8 4.7 6.1-4.6-1.3-4.7-6.1z"/>
	</g>
	<g>
		<path fill-rule="evenodd" class="s182" d="m141.5 313q3.8 4.2 4.6 10-1.9-2.1-3.8-4.6-1.2-2.6-0.8-5.4z"/>
	</g>
	<g>
		<path fill-rule="evenodd" class="s183" d="m167.6 307.7q1.3-0.3 2.3 0.7 4.7 7.5 8.4 15.4-0.7 0-1.5 0 0-1.6-1.5-1.6 0.4-2.2-1.6-3 0.3-1.7-0.7-3.1-3.6-3.7-5.4-8.4z"/>
	</g>
	<g>
		<path fill-rule="evenodd" class="s184" d="m353.4 315.3q0.5 2.7-1.5 3.9-0.5-2.7 1.5-3.9z"/>
	</g>
	<g>
		<path fill-rule="evenodd" class="s185" d="m214.1 195.8q0.6 2 2.3 3.1-0.4 2.3 1.6 3.1-0.4 2.2 1.5 3-0.4 2.8 0.8 5.4 1.9 2.5 3.8 4.6-0.4 2.3 1.5 3.1 0 1.1 0 2.3-1.5-0.4-2.3-1.9-4.6-8.1-8.8-16.5-0.6-3.1-0.4-6.2z"/>
	</g>
	<g>
		<path fill-rule="evenodd" class="s186" d="m173.7 319.2q2 0.8 1.6 3-2-0.7-1.6-3z"/>
	</g>
	<g>
		<path fill-rule="evenodd" class="s187" d="m127.7 300.7q0.4 0 0.7 0 3.3 10.2 7.7 20 1.2 0 2.3 0 0.4 3.1 0.8 6.1 1.1 0 2.3 0 0.4 2.3 0.8 4.7-1.9-1-1.6-3.1-1.1 0-2.3 0-1.2-4.8-3.8-9.2-0.9-1.3-2.3-1.6-1.8-8.6-4.6-16.9z"/>
	</g>
	<g>
		<path fill-rule="evenodd" class="s188" d="m175.3 322.2q1.5 0 1.5 1.6-1.5 0-1.5-1.6z"/>
	</g>
	<g>
		<path fill-rule="evenodd" class="s189" d="m315 319.2q0.6 3.3-1.5 5.3-0.2-2.3 0.4-4.6 0.4-0.6 1.1-0.7z"/>
	</g>
	<g>
		<path fill-rule="evenodd" class="s190" d="m349.6 320.7q1.1 0 2.3 0-2.3 9.3-8.5 16.1 0-3.5 0.8-6.9 1.1 0 2.3 0 1.5-4.6 3.1-9.2z"/>
	</g>
	<g>
		<path fill-rule="evenodd" class="s191" d="m146.1 323q1.9 0.8 1.5 3.1-1.9-0.8-1.5-3.1z"/>
	</g>
	<g>
		<path fill-rule="evenodd" class="s192" d="m176.8 323.8q0.8 0 1.5 0 0.8 1.5 1.6 3 1.1 2.6 1.5 5.4-3.8-3.3-4.6-8.4z"/>
	</g>
	<g>
		<path fill-rule="evenodd" class="s193" d="m211.4 317.6q5.2 6.4 11.5 12.3 1.6 1.6 1.5 3.9-3.1-2-5.4-4.7-3.4-3.6-6.9-7.6-1.1-1.8-0.7-3.9z"/>
	</g>
	<g>
		<path fill-rule="evenodd" class="s194" d="m140 332.2q1.9 0.8 1.5 3.1-1.9-0.8-1.5-3.1z"/>
	</g>
	<g>
		<path fill-rule="evenodd" class="s195" d="m179.9 326.8q4.7 5.5 8.4 11.6 0 2.3 0.8 4.6-1.8-0.5-2.7-2.3-3.1-3.9-5-8.5-0.4-2.8-1.5-5.4z"/>
	</g>
	<g>
		<path fill-rule="evenodd" class="s196" d="m313.5 324.5q0 2.3 0 4.6-3.2 3.7-4.6 8.5-1.8 2.7-4.6 4.6 3.7-9.4 9.2-17.7z"/>
	</g>
	<g>
		<path fill-rule="evenodd" class="s197" d="m313.5 329.1q-0.4 5.4-4.6 8.5 1.4-4.8 4.6-8.5z"/>
	</g>
	<g>
		<path fill-rule="evenodd" class="s198" d="m343.4 336.8q0.4 2.3-1.5 3.1 0-0.8 0-1.5 0-1.6 1.5-1.6z"/>
	</g>
	<g>
		<path fill-rule="evenodd" class="s199" d="m188.3 338.4q1.9 0.3 3.5 1.5 2.6 3.5 4.2 7.7-3.2-2.8-6.9-4.6-0.8-2.3-0.8-4.6z"/>
	</g>
	<g>
		<path fill-rule="evenodd" class="s200" d="m219 329.1q2.3 2.7 5.4 4.7 1.5 0 1.5 1.5-0.1 1.2 0.4 2.3 1.9 1.2 2.7 3.1-3.2-1.1-4.6-4.3-1.1-0.5-2.3-0.3-1.5-3.5-3.1-7z"/>
	</g>
	<g>
		<path fill-rule="evenodd" class="s201" d="m341.9 338.4q0 0.7 0 1.5-0.8 1.5-1.6 3.1-0.7 0-1.5 0 0.4-2.3 0.8-4.6 1.1 0 2.3 0z"/>
	</g>
	<g>
		<path fill-rule="evenodd" class="s202" d="m225.9 335.3q5.5 4.1 10 9.6 3.2 1.2 5.4 3.4-3.4 0.2-6.1-1.5 0-1.5-1.6-1.5-1.5-3.1-4.6-4.6-0.8-1.9-2.7-3.1-0.5-1.1-0.4-2.3z"/>
	</g>
	<g>
		<path fill-rule="evenodd" class="s203" d="m308.9 337.6q-0.5 5-4.6 7.7 0-1.6 0-3.1 2.8-1.9 4.6-4.6z"/>
	</g>
	<g>
		<path fill-rule="evenodd" class="s204" d="m229 340.7q3.1 1.5 4.6 4.6-4.2-0.4-4.6-4.6z"/>
	</g>
	<g>
		<path fill-rule="evenodd" class="s205" d="m338.8 343q0.8 0 1.5 0 0 1.5-1.5 1.5 0-0.8 0-1.5z"/>
	</g>
	<g>
		<path fill-rule="evenodd" class="s206" d="m153.8 337.6q4.2 2.7 4.6 7.7 3.3 0.4 4.2 3.8 5 3.3 8.8 7.7-2.7-1.1-5.3 0-1.1 1.8 0 3.8-3.5-1.5-5.4-4.6 1 0.6 2.3 0.8 2.2-1.3 4.6-1.9-3.5-3.1-6.9-6.2-2-0.2-3.9-1.1 1.1-1.5 0.4-3.1-1.1 1-2.7 0.8 0.4 4 3.1 6.9-3.7-2.6-6.9-6.2-1.1-1.3-0.8-3 1.9 0.6 3.1 2.3 1.4-0.9 3.1-0.8-0.8-3.6-2.3-6.9z"/>
	</g>
	<g>
		<path fill-rule="evenodd" class="s207" d="m73.2 319.2q0.9 2 1.1 4.6 0.6 15.3 0.4 30.7-2.3-17.2-1.5-35.3z"/>
	</g>
	<g>
		<path fill-rule="evenodd" class="s208" d="m235.2 346.8q2.7 1.7 6.1 1.5 2.5 2.2 6.1 1.6 1.3 2 3.9 1.5 0 3.1 0 6.2-1.9 0-3.9 0 3.5-1.5 3.1-5.4-4.2 0.2-8.4-0.4-4.6-1-6.9-5z"/>
	</g>
	<g>
		<path fill-rule="evenodd" class="s209" d="m241.3 348.3q4.8-0.6 8.4 1.6-1.1 0-2.3 0-3.6 0.6-6.1-1.6z"/>
	</g>
	<g>
		<path fill-rule="evenodd" class="s210" d="m304.3 342.2q0 1.5 0 3.1-3.1 3-6.2 6.1-1.1 0-2.3 0 3.9-5 8.5-9.2z"/>
	</g>
	<g>
		<path fill-rule="evenodd" class="s211" d="m338.8 344.5q-3.9 8.6-11.5 14.6-1.3 1.3-3.1 1.5 3.5-3.9 6.2-8.4 3.1-5 8.4-7.7z"/>
	</g>
	<g>
		<path fill-rule="evenodd" class="s212" d="m147.6 326.1q1.8 0.6 3.1 2.3 13.1 21.8 34.6 35.7 1.4 1.6 2.3 3.4-1.7 0.3-3.1-0.7-2.5-2.4-5.4-3.9-2-1.4-4.6-1.5-0.6-2.9-3.1-4.6-3.8-4.4-8.8-7.7-0.9-3.4-4.2-3.8-0.4-5-4.6-7.7-3.6-4.3-6.2-9.2 0-1.2 0-2.3z"/>
	</g>
	<g>
		<path fill-rule="evenodd" class="s213" d="m160.7 356q-1.6-1.9-3.1-3.8-2.7-2.9-3.1-6.9 1.6 0.2 2.7-0.8 0.7 1.6-0.4 3.1 1.9 0.9 3.9 1.1 3.4 3.1 6.9 6.2-2.4 0.6-4.6 1.9-1.3-0.2-2.3-0.8z"/>
	</g>
	<g>
		<path fill-rule="evenodd" class="s214" d="m247.4 349.9q1.2 0 2.3 0 4 0.1 3.1 4.2-0.1 2.3-1.5 3.5 0-3.1 0-6.2-2.6 0.5-3.9-1.5z"/>
	</g>
	<g>
		<path fill-rule="evenodd" class="s215" d="m74.7 354.5q2.2 2.8 1.5 6.9-2.1-2.9-1.5-6.9z"/>
	</g>
	<g>
		<path fill-rule="evenodd" class="s216" d="m189.1 343q3.7 1.8 6.9 4.6 3.8 6.4 10.7 9.2 0 1.1 0 2.3-1.7 0.3-3-0.8-8.2-6.9-14.6-15.3z"/>
	</g>
	<g>
		<path fill-rule="evenodd" class="s217" d="m330.4 352.2q-2.7 4.5-6.2 8.4-1.5 0-1.5 1.6-0.8 0-1.6 0 0.8-2.3 0-4.3 2.5-0.4 4.7-1.5 1.4-3.1 4.6-4.2z"/>
	</g>
	<g>
		<path fill-rule="evenodd" class="s218" d="m132.3 317.6q1.4 0.3 2.3 1.6 2.6 4.4 3.8 9.2 1.2 0 2.3 0-0.3 2.1 1.6 3.1 2.4 6.7 7.6 11.5-0.3 1.7 0.8 3 3.2 3.6 6.9 6.2 1.5 1.9 3.1 3.8 1.9 3.1 5.4 4.6 0.7 2.3 3 3.1 1.1 2.2 3.1 3.8 4.3 2.8 8.4 5.4 1.1 0.8 0.8 2.3-1.7 0.3-3.1-0.8-22.9-15.5-36.8-39.1 0.4-2.3-1.5-3.1-5.4-6.3-7.7-14.6z"/>
	</g>
	<g>
		<path fill-rule="evenodd" class="s219" d="m247.4 357.6q2 0 3.9 0-4.2 3.8-10 4.6 3.1-2.3 6.1-4.6z"/>
	</g>
	<g>
		<path fill-rule="evenodd" class="s220" d="m206.7 359.1q4.3 0 7 3.1-4.3-0.1-7-3.1z"/>
	</g>
	<g>
		<path fill-rule="evenodd" class="s221" d="m324.2 360.6q0 1.6-1.5 1.6 0-1.6 1.5-1.6z"/>
	</g>
	<g>
		<path fill-rule="evenodd" class="s222" d="m206.7 356.8q5.2 1.6 10 4.2 15.9 1.7 30.7-3.4-3 2.3-6.1 4.6-0.8 0-1.5 0-3.7-0.7-6.2 1.5-0.4 0-0.7 0-9.7-0.3-19.2-1.5-2.7-3.1-7-3.1 0-1.2 0-2.3z"/>
	</g>
	<g>
		<path fill-rule="evenodd" class="s223" d="m39.4 352.9q1.1 2.9 0.7 6.2-0.1 4.3-1.5 8.4-1.1 0-2.3 0 1.1-7.5 3.1-14.6z"/>
	</g>
	<g>
		<path fill-rule="evenodd" class="s224" d="m239.8 362.2q-2.5 2.1-6.2 1.5 2.5-2.2 6.2-1.5z"/>
	</g>
	<g>
		<path fill-rule="evenodd" class="s225" d="m295.8 351.4q1.2 0 2.3 0-4.3 5.7-9.2 11.1-1.6 1.7-3.8 2-5.3 3.4-10.8 6.9-1.8 1.1-3.8 0.7 9.1-6.4 18.4-13 3.9-3.6 6.9-7.7z"/>
	</g>
	<g>
		<path fill-rule="evenodd" class="s226" d="m213.7 362.2q9.5 1.2 19.2 1.5-0.2 0.7-0.8 1.1-5.8 0.8-11.5 0-3.9-0.8-6.9-2.6z"/>
	</g>
	<g>
		<path fill-rule="evenodd" class="s227" d="m321.1 362.2q0.8 0 1.6 0-1.1 3.2-4.6 3 0.7-2.3 3-3z"/>
	</g>
	<g>
		<path fill-rule="evenodd" class="s228" d="m76.2 361.4q2.2 2.5 1.6 6.1-2.2-2.4-1.6-6.1z"/>
	</g>
	<g>
		<path fill-rule="evenodd" class="s229" d="m169.1 363.7q5.4 3.4 10.8 6.9 1 1 0.7 2.3-4.1-2.6-8.4-5.4-2-1.6-3.1-3.8z"/>
	</g>
	<g>
		<path fill-rule="evenodd" class="s230" d="m77.8 367.5q1.9 0.8 1.5 3.1-0.8 0-1.5 0 0-1.5 0-3.1z"/>
	</g>
	<g>
		<path fill-rule="evenodd" class="s231" d="m318.1 365.2q0 1.6-1.6 1.6-5.9 3.1-11.5 6.9-1.1 1.7-3 2.3-1.2 0-2.4 0 0.4-0.8 0.8-1.6 7.4-3.9 14.2-8.4 1.7-0.7 3.5-0.8z"/>
	</g>
	<g>
		<path fill-rule="evenodd" class="s232" d="m316.5 366.8q-2.5 5.5-8.4 6.9-1.5 0-3.1 0 5.6-3.8 11.5-6.9z"/>
	</g>
	<g>
		<path fill-rule="evenodd" class="s233" d="m36.3 367.5q1.2 0 2.3 0-2.5 5.5-6.1 10.4-4.2 2.5-8.5 5-3.7 1.1-7.7 0.8 0-0.4 0-0.8 9.7-1.2 16.2-9.2 1.5-3.4 3.8-6.2z"/>
	</g>
	<g>
		<path fill-rule="evenodd" class="s234" d="m79.3 370.6q4 1.8 4.6 6.1-4.1-1.7-4.6-6.1z"/>
	</g>
	<g>
		<path fill-rule="evenodd" class="s235" d="m305 373.7q1.6 0 3.1 0-1 1.8-3.1 2.7 1 0.8 1.6 1.9-3.2 0.3-6.2-0.8 0.9-0.8 1.6-1.5 1.9-0.6 3-2.3z"/>
	</g>
	<g>
		<path fill-rule="evenodd" class="s236" d="m179.1 362.9q2.9 1.5 5.4 3.9 1.4 1 3.1 0.7 0.7 2 3 1.6 0.8 1.9 3.1 1.5 0.8 1.9 3.1 1.5 3.3 3.5 8.4 3.1 0.8 1.9 3.1 1.5 0.4 0 0.8 0 2.8 2.2 6.9 1.6 3.6 2.2 8.4 1.5 0.4 0 0.8 0 4.1 1.5 9.2 1.6 5-0.1 9.2-1.6 0.4 0 0.8 0 4.6 0.4 9.2-0.7 2.8-0.6 4.6-2.4 3 0.6 4.6-1.5 3 0.6 4.6-1.5 2.3 0.4 3.1-1.6 2 0.4 3.8-0.7 5.5-3.5 10.8-6.9 0.1 1.6-0.8 3-2.4 0.7-3.8 2.3-43.3 23.1-88.3 2.7-5.7-2.4-10.8-6.1-2.2-1.1-2.3-3.5z"/>
	</g>
	<g>
		<path fill-rule="evenodd" class="s237" d="m190.6 369.1q2.3-0.4 3.1 1.5-2.3 0.4-3.1-1.5z"/>
	</g>
	<g>
		<path fill-rule="evenodd" class="s238" d="m187.6 367.5q2.2-0.4 3 1.6-2.3 0.4-3-1.6z"/>
	</g>
	<g>
		<path fill-rule="evenodd" class="s239" d="m306.6 378.3q2.3-0.2 4.6 0.4 0.6 0.4 0.7 1.1-3.3 0.6-5.3-1.5z"/>
	</g>
	<g>
		<path fill-rule="evenodd" class="s240" d="m181.4 375.2q3.5 0.2 6.9 0.8 0 1.1 0 2.3 1.6 0 3.1 0 1.5 1.5 3.1 3.1-7.4-1.7-13.1-6.2z"/>
	</g>
	<g>
		<path fill-rule="evenodd" class="s241" d="m83.9 376.7q5.1 2.4 10 4.7-3.5 0.1-6.9-0.8-0.4 0-0.8 0-2-1.4-2.3-3.9z"/>
	</g>
	<g>
		<path fill-rule="evenodd" class="s242" d="m298.1 376q0.8 0 1.5 0 1.2 0 2.4 0-0.7 0.7-1.6 1.5 3 1.1 6.2 0.8 2 2.1 5.3 1.5 3 2 6.9 2.7 5.8 0.6 11.6 0.4 0.3 0 0.7 0 8 2.3 16.9 1.5 2.3 0 2.3 2.3 0 1.9 0 3.9 0 2.3-2.3 2.3-8.4 0-16.9 0-2.3 0-4.6 0 0-1.2 0-2.3 10.7 2.2 21.5 0.7 3.1-2.7 0-5.3-11.9-1-23.8-1.2-10-2.4-19.9-5.4-3.1-0.5-6.2-0.3 0-1.6 0-3.1z"/>
	</g>
	<g>
		<path fill-rule="evenodd" class="s243" d="m94.7 381.4q2.3-0.2 4.6 0.3 0.6 0.5 0.7 1.2-3.3 0.6-5.3-1.5z"/>
	</g>
	<g>
		<path fill-rule="evenodd" class="s244" d="m194.5 381.4q2.2-0.4 3 1.5-2.2 0.4-3-1.5z"/>
	</g>
	<g>
		<path fill-rule="evenodd" class="s245" d="m311.9 379.8q8.5 0.3 16.9 1.9 1.1 0.4 1.6 1.2-5.8 0.2-11.6-0.4-3.9-0.7-6.9-2.7z"/>
	</g>
	<g>
		<path fill-rule="evenodd" class="s246" d="m87 380.6q3.4 0.9 6.9 0.8 0.4 0 0.8 0 2 2.1 5.3 1.5 5.4-0.2 10.8 0.4 0.8 0.7 0.7 1.9-6.1 0.2-12.2-0.4-5.8-1.4-11.6-3.1-0.6-0.4-0.7-1.1z"/>
	</g>
	<g>
		<path fill-rule="evenodd" class="s247" d="m197.5 382.9q3-0.6 4.6 1.5-2.9 0.6-4.6-1.5z"/>
	</g>
	<g>
		<path fill-rule="evenodd" class="s248" d="m171.4 356.8q2.5 1.7 3.1 4.6 2.6 0.1 4.6 1.5 0.1 2.4 2.3 3.5 5.1 3.7 10.8 6.1 45 20.4 88.3-2.7 2.6 2.1 4.2 5.4 2.2-0.7 3.8-2.3 4.6 2 9.6 3.1 0 1.5 0 3.1 3.1-0.2 6.2 0.3 9.9 3 19.9 5.4 11.9 0.2 23.8 1.2 3.1 2.6 0 5.3-10.8 1.5-21.5-0.7-2.3 0-4.6 0-0.1-0.7-0.8-1.2-11.3-2.9-23-5-2.7 0-5.4 0-3.6-2.2-8.4-1.5-10.6 2.4-20.7 4.6-37.7 5.5-72.2-9.2-1.5 0-3.1 0 0-1.2 0-2.3-3.4-0.6-6.9-0.8 0.3-1.5-0.8-2.3 0.3-1.3-0.7-2.3-5.4-3.5-10.8-6.9-2.3-0.8-3-3.1-1.1-2 0-3.8 2.6-1.1 5.3 0z"/>
	</g>
	<g>
		<path fill-rule="evenodd" class="s249" d="m225.2 379.8q9.2 0 18.4 0-4.2 1.5-9.2 1.6-5.1-0.1-9.2-1.6z"/>
	</g>
	<g>
		<path fill-rule="evenodd" class="s250" d="m258.2 376.7q-1.8 1.8-4.6 2.4-4.6 1.1-9.2 0.7 0.1-0.7 0.7-1.1 6.8-0.4 13.1-2z"/>
	</g>
	<g>
		<path fill-rule="evenodd" class="s251" d="m216 378.3q3.8-0.2 7.6 0.4 0.7 0.4 0.8 1.1-4.8 0.7-8.4-1.5z"/>
	</g>
	<g>
		<path fill-rule="evenodd" class="s252" d="m209.1 376.7q4-0.6 6.9 1.6-4.1 0.6-6.9-1.6z"/>
	</g>
	<g>
		<path fill-rule="evenodd" class="s253" d="m262.8 375.2q-1.6 2.1-4.6 1.5 1.7-2 4.6-1.5z"/>
	</g>
	<g>
		<path fill-rule="evenodd" class="s254" d="m205.2 375.2q2.3-0.4 3.1 1.5-2.3 0.4-3.1-1.5z"/>
	</g>
	<g>
		<path fill-rule="evenodd" class="s255" d="m267.4 373.7q-1.6 2.1-4.6 1.5 1.6-2.1 4.6-1.5z"/>
	</g>
	<g>
		<path fill-rule="evenodd" class="s256" d="m196.8 372.1q3.7 1.2 7.6 2 0.7 0.4 0.8 1.1-5.1 0.4-8.4-3.1z"/>
	</g>
	<g>
		<path fill-rule="evenodd" class="s257" d="m270.5 372.1q-0.8 2-3.1 1.6 0.8-2 3.1-1.6z"/>
	</g>
	<g>
		<path fill-rule="evenodd" class="s258" d="m193.7 370.6q2.3-0.4 3.1 1.5-2.3 0.4-3.1-1.5z"/>
	</g>
	<g>
		<path fill-rule="evenodd" class="s259" d="m284.3 382.9q4.8-0.7 8.4 1.5-6.6 0.3-13 1.6 2.3-1.6 4.6-3.1z"/>
	</g>
	<g>
		<path fill-rule="evenodd" class="s260" d="m331.1 382.9q8.9-0.7 16.9 1.5-8.9 0.8-16.9-1.5z"/>
	</g>
	<g>
		<path fill-rule="evenodd" class="s261" d="m86.2 380.6q0.4 0 0.8 0 0.1 0.7 0.7 1.1 5.8 1.7 11.6 3.1 6.1 0.6 12.2 0.4 0 0.4 0 0.8 0 0.3 0 0.7-1 1.3-0.7 3.1-52.6 0-105.2 0 0-2.3 0-4.6 1.5 0 3.1 0 9 1.7 17.6-2.3 0.8 0.2 1.6 0.4-3.5 4.4 2.3 5 10.3-0.8 20.7-1.6 3.4 0.3 6.5 1.6 13.6-1.4 27.3-1.6-0.3-3.3 3-3.4-1.5-1-1.5-2.7z"/>
	</g>
	<g>
		<path fill-rule="evenodd" class="s262" d="m202.1 384.4q2.3-0.4 3.1 1.6-2.3 0.4-3.1-1.6z"/>
	</g>
	<g>
		<path fill-rule="evenodd" class="s263" d="m284.3 382.9q-2.3 1.5-4.6 3.1-3.7-0.7-6.2 1.5-5.2-0.3-9.9 1.5 0-0.7 0-1.5 10.1-2.2 20.7-4.6z"/>
	</g>
	<g>
		<path fill-rule="evenodd" class="s264" d="m111.5 386q3.1 2.3 0 4.6 0-2 0-3.9 0-0.4 0-0.7z"/>
	</g>
	<g>
		<path fill-rule="evenodd" class="s265" d="m206.7 386q3.4-0.6 5.4 1.5-3.3 0.6-5.4-1.5z"/>
	</g>
	<g>
		<path fill-rule="evenodd" class="s266" d="m279.7 386q-2.5 2.1-6.2 1.5 2.5-2.2 6.2-1.5z"/>
	</g>
	<g>
		<path fill-rule="evenodd" class="s267" d="m292.7 384.4q2.7 0 5.4 0 1.5 1.6 3.1 3.1-3.7-1.2-7.7-1.9-0.6-0.5-0.8-1.2z"/>
	</g>
	<g>
		<path fill-rule="evenodd" class="s268" d="m191.4 378.3q34.5 14.7 72.2 9.2 0 0.8 0 1.5-5 0-10 0 0 1.2 0 2.3-1.2 0-2.3 0-19.1-1.1-38.4-3.8-0.4 0-0.8 0-2-2.1-5.4-1.5-0.7 0-1.5 0-0.8-2-3.1-1.6-1.6-2.1-4.6-1.5-0.8-1.9-3-1.5-1.6-1.6-3.1-3.1z"/>
	</g>
	<g>
		<path fill-rule="evenodd" class="s269" d="m298.1 384.4q11.7 2.1 23 5 0.7 0.5 0.8 1.2-8.8-1.6-17.6-3.1-1.6 0-3.1 0-1.6-1.5-3.1-3.1z"/>
	</g>
	<g>
		<path fill-rule="evenodd" class="s270" d="m350.3 386.7q3.1 1.9 0 3.9 0-2 0-3.9z"/>
	</g>
	<g>
		<path fill-rule="evenodd" class="s271" d="m5.6 385.2q0 2.3 0 4.6 52.6 0 105.2 0-52.8 1.2-106 0.8-0.3-3 0.8-5.4z"/>
	</g>
	<g>
		<path fill-rule="evenodd" class="s272" d="m273.5 387.5q-4.2 1.9-9.2 3.5-5.3 0.5-10.7 0.3 0-1.1 0-2.3 5 0 10 0 4.7-1.8 9.9-1.5z"/>
	</g>
	<g>
		<path fill-rule="evenodd" class="s273" d="m212.9 387.5q19.3 2.7 38.4 3.8-9.2 0-18.4 0-6.2 0.2-12.3-0.3-4.2-1.4-7.7-3.5z"/>
	</g>
	<g>
		<path fill-rule="evenodd" class="s274" d="m16.3 382.9q0 0.4 0 0.8-3.2 2.1-7.6 1.5-1.6 0-3.1 0-1.1 2.4-0.8 5.4 53.2 0.4 106-0.8-0.3-1.8 0.7-3.1 0 1.9 0 3.9 0.1 1.1-0.7 1.9-13.1 0.6-26.1 0.4-27.3 0-54.5 0-12.7 0.4-25.4-0.8-3.2-4.8 0.8-8.8 5.4-0.6 10.7-0.4z"/>
	</g>
	<g>
		<path fill-rule="evenodd" class="s275" d="m232.9 391.3q9.2 0 18.4 0-0.5 0.9-1.6 1.2-7.3 0.8-14.5 0-1.5-0.3-2.3-1.2z"/>
	</g>
	<g>
		<path fill-rule="evenodd" class="s276" d="m304.3 387.5q8.8 1.5 17.6 3.1 2.3 0 4.6 0 0 1.1 0 2.3-7.8 0.1-15.3-1.9-3.9-1.6-6.9-3.5z"/>
	</g>
	<g>
		<path fill-rule="evenodd" class="s277" d="m30.2 392.9q27.2 0 54.5 0-1.3 0.9-3.1 1.1-10.7 0.2-21.5 0.4-15.2 0.2-29.9-1.5z"/>
	</g>
	<g>
		<path fill-rule="evenodd" class="s278" d="m130.1 470.9q8.5 0 16.9 0-0.3 1.1-1.5 1.5-7.1 0.1-14.6-0.4-0.6-0.4-0.8-1.1z"/>
	</g>
</svg>